<?xml version="1.0" encoding="UTF-8"?>
<svg width="160px" height="35px" viewBox="0 0 160 35" version="1.1" xmlns="http://www.w3.org/2000/svg" xmlns:xlink="http://www.w3.org/1999/xlink">
    <!-- Generator: sketchtool 51.3 (57544) - http://www.bohemiancoding.com/sketch -->
    <title>D641E3D9-B860-402A-AE1C-4546CA7877A7</title>
    <desc>Created with sketchtool.</desc>
    <defs></defs>
    <g id="Landing-page" stroke="none" stroke-width="1" fill="none" fill-rule="evenodd">
        <g id="Pro-API-landing---testimonial" transform="translate(-361.000000, -544.000000)" fill="#969696" fill-rule="nonzero">
            <g id="Group-8" transform="translate(361.000000, 541.000000)">
                <g id="coinbase-vector-logo" transform="translate(0.000000, 3.000000)">
                    <path d="M12.4533333,30.4330484 C13.6933333,30.4330484 14.8533333,30.2070275 15.9466667,29.7682811 C15.9466667,29.8081671 18.1733333,33.2516619 18.2133333,33.2649573 C16.2425733,34.3177549 14.035521,34.853076 11.8,34.8205128 C4.96,34.8338082 0,30.3266857 0,23.1604938 C0,15.9411206 5.2,11.4605888 11.8,11.4605888 C14.1333333,11.4605888 15.9866667,11.965812 17.84,12.9496676 L15.7066667,16.5394112 C14.5866667,16.1006648 13.44,15.9012346 12.24,15.9012346 C8.2,15.9012346 5.06666667,18.4672365 5.06666667,23.1604938 C5.06666667,27.6011396 8.09333333,30.4330484 12.4533333,30.4330484 Z M29.6933333,11.4605888 C36.4133333,11.4605888 41.28,16.2070275 41.28,23.1604938 C41.28,30.0740741 36.4133333,34.8205128 29.68,34.8205128 C23.0133333,34.8205128 18.1466667,30.0740741 18.1466667,23.1604938 C18.1466667,16.2070275 23.0133333,11.4605888 29.6933333,11.4605888 Z M29.6933333,15.7416904 C25.9466667,15.7416904 23.2133333,18.6267806 23.2133333,23.1604938 C23.2133333,27.654321 25.9466667,30.5394112 29.6933333,30.5394112 C33.5333333,30.5394112 36.2266667,27.654321 36.2266667,23.1604938 C36.2266667,18.6267806 33.5333333,15.7416904 29.6933333,15.7416904 Z M44.4666667,34.3152896 L44.4666667,11.965812 L49.48,11.965812 L49.48,34.3019943 L44.4666667,34.3019943 L44.4666667,34.3152896 Z M43.8,5.09211776 C43.9078941,3.44196661 45.2816206,2.15855473 46.94,2.15855473 C48.5983794,2.15855473 49.9721059,3.44196661 50.08,5.09211776 C50.080378,6.82875618 48.687889,8.24682102 46.9466667,8.28300095 C45.2054444,8.24682102 43.8129553,6.82875618 43.8133333,5.09211776 L43.8,5.09211776 Z M53.8533333,13.3751187 C57.1372596,12.1443077 60.6119449,11.4963477 64.12,11.4605888 C69.8533333,11.4605888 73.48,13.6277303 73.48,19.9297246 L73.48,34.3152896 L68.5333333,34.3152896 L68.5333333,20.3950617 C68.5333333,17.1642925 66.52,16.0075973 63.7333333,16.0075973 C61.96,16.0075973 60.1866667,16.2469136 58.8666667,16.6590693 L58.8666667,34.3019943 L53.8666667,34.3019943 L53.8666667,13.3751187 L53.8533333,13.3751187 Z M77.68,0 L82.6933333,0 L82.6933333,12.5641026 C83.76,12.005698 85.8266667,11.4605888 87.8,11.4605888 C94.28,11.4605888 99.1333333,15.5821462 99.1333333,22.7616334 C99.1333333,29.9810066 94.3333333,34.8205128 86.04,34.8205128 C82.8,34.8205128 79.96,34.1557455 77.68,33.3580247 L77.68,0 Z M82.6933333,30.0740741 C83.6533333,30.379867 84.92,30.5394112 86.1866667,30.5394112 C90.7866667,30.5394112 94.08,28.0132953 94.08,22.8679962 C94.08,18.5204179 90.9866667,15.954416 87.2,15.954416 C85.2266667,15.954416 83.7066667,16.4596391 82.6933333,17.0180437 L82.6933333,30.0740741 Z M113.626667,19.331434 C113.626667,16.9116809 111.786667,15.7948718 109.306667,15.7948718 C106.733333,15.7948718 104.706667,16.5527066 102.84,17.6163343 L102.84,13.2687559 C105.073034,12.058665 107.578632,11.4363381 110.12,11.4605888 C115.026667,11.4605888 118.52,13.4814815 118.52,19.0788224 L118.52,33.8632479 C116.386667,34.4216524 113.36,34.7673314 110.826667,34.7673314 C105.013333,34.7673314 100.76,33.0123457 100.76,27.960114 C100.76,23.4131054 104.653333,21.1927825 111.133333,21.1927825 L113.613333,21.1927825 L113.613333,19.331434 L113.626667,19.331434 Z M113.626667,24.5166192 L111.493333,24.5166192 C108,24.5166192 105.72,25.5403609 105.72,27.8138651 C105.72,30.1272555 107.853333,31.031339 110.88,31.031339 C111.64,31.031339 112.706667,30.9382716 113.613333,30.7920228 L113.613333,24.5299145 L113.626667,24.5166192 Z M122.16,28.2659069 C124.113874,29.8095468 126.509127,30.6941498 129,30.7920228 C131.226667,30.7920228 132.693333,30.034188 132.693333,28.2659069 C132.693333,26.4444444 131.373333,25.7929725 128.493333,25.0351377 C123.826667,23.97151 121.866667,22.1101614 121.866667,18.2146249 C121.866667,13.6809117 125.306667,11.4605888 129.866667,11.4605888 C132.4,11.4605888 134.413333,12.005698 136.293333,13.1756885 L136.293333,17.7625831 C134.506498,16.3405494 132.299074,15.5460844 130.013333,15.5023742 C127.84,15.5023742 126.68,16.5660019 126.68,18.02849 C126.68,19.4909782 127.626667,20.2355176 130.213333,20.9534663 C135.333333,22.0569801 137.546667,23.97151 137.546667,28 C137.546667,32.7065527 133.96,34.8205128 129.106667,34.8205128 C126.672307,34.8689666 124.272193,34.2430329 122.173333,33.0123457 L122.173333,28.2659069 L122.16,28.2659069 Z M144.413333,24.2773029 L144.413333,24.3703704 C144.72,28.3589744 148.146667,30.5394112 151.653333,30.5394112 C154.733333,30.5394112 156.96,29.8214625 159.186667,28.3589744 L159.186667,32.7464387 C157.16,34.1690408 154.173333,34.8205128 151.293333,34.8205128 C144.306667,34.8205128 139.56,30.379867 139.56,23.320038 C139.56,16.2070275 144.213333,11.4605888 150.386667,11.4605888 C156.92,11.4605888 160,15.648623 160,21.7511871 L160,24.2773029 L144.4,24.2773029 L144.413333,24.2773029 Z M155.293333,21.0465337 C155.186667,17.5631529 153.466667,15.648623 150.226667,15.648623 C147.346667,15.648623 145.226667,17.6695157 144.56,21.0465337 L155.293333,21.0465337 Z" id="Coinbase-logo-Crypto-API"></path>
                </g>
            </g>
        </g>
    </g>
</svg>