<?xml version="1.0" encoding="UTF-8"?>
<svg width="109px" height="17px" viewBox="0 0 109 17" version="1.1" xmlns="http://www.w3.org/2000/svg" xmlns:xlink="http://www.w3.org/1999/xlink">
    <!-- Generator: Sketch 55.2 (78181) - https://sketchapp.com -->
    <title>Samsung_wordmark</title>
    <desc>Created with Sketch.</desc>
    <g id="Landing-page" stroke="none" stroke-width="1" fill="none" fill-rule="evenodd">
        <g id="Pro-API-landing---testimonial" transform="translate(-515.000000, -559.000000)" fill="#969696" fill-rule="nonzero">
            <g id="Samsung_wordmark" transform="translate(515.000000, 559.000000)">
                <path d="M7.39297621,11.4250734 C7.54621788,11.7936242 7.49762906,12.2659417 7.42287703,12.5521947 C7.29206097,13.0602938 6.9332512,13.5791274 5.87177231,13.5791274 C4.87757025,13.5791274 4.27207877,13.0280903 4.27207877,12.1979566 L4.27207877,10.7201754 L0,10.7201754 L0,11.8938128 C0,15.2930673 2.79198849,16.32 5.78580747,16.32 C8.6637608,16.32 11.0334003,15.3825214 11.4108981,12.8384477 C11.6052534,11.5216838 11.4632245,10.6593466 11.3959477,10.3408902 C10.7231794,7.14916904 4.68321496,6.19737777 4.23096515,4.41187459 C4.16816462,4.14856656 4.16307401,3.87565282 4.21601475,3.61036615 C4.3281428,3.12015786 4.67573976,2.58701162 5.66994182,2.58701162 C6.60434225,2.58701162 7.1462945,3.13804867 7.1462945,3.96818242 L7.1462945,4.91281736 L11.1193651,4.91281736 L11.1193651,3.83936856 C11.1193651,0.518833589 8.0059429,0 5.75590666,0 C2.92280455,0 0.609229081,0.898118834 0.186880086,3.3849419 C0.0747520345,4.06479281 0.0560640259,4.67308046 0.224256104,5.43880728 C0.915712423,8.55180881 6.57070383,9.45350581 7.39297621,11.4250734" id="S"></path>
                <path d="M16.434618,0.683671362 L13.5403727,16.32 L17.7571782,16.32 L19.893058,2.13018779 L19.9809844,2.13018779 L22.0582465,16.32 L26.2530704,16.32 L23.3771431,0.68 L16.434618,0.683671362 Z M40.0098947,0.683671362 L38.0865038,12.6376244 L37.9949138,12.6376244 L36.0751865,0.683671362 L29.7115104,0.683671362 L29.3671318,16.32 L33.2725312,16.32 L33.3677849,2.26235681 L33.4557113,2.26235681 L36.0605321,16.32 L40.0208855,16.32 L42.6293699,2.26602817 L42.7136327,2.26602817 L42.8125499,16.32 L46.7142857,16.32 L46.3699072,0.68 L40.0098947,0.683671362 Z" id="Shape"></path>
                <g id="S-link" transform="translate(50.776398, 0.000000)">
                    <path d="M7.34368664,11.8002174 C7.49590663,12.1808696 7.44764176,12.6686957 7.3733881,12.9643478 C7.2434442,13.4891304 6.88702665,14.025 5.83262472,14.025 C4.84505109,14.025 4.24359647,13.4558696 4.24359647,12.5984783 L4.24359647,11.0721739 L0,11.0721739 L0,12.2843478 C0,15.7952174 2.77337407,16.8558696 5.74723302,16.8558696 C8.6059988,16.8558696 10.9598397,15.8876087 11.3348207,13.26 C11.5278802,11.9 11.3867982,11.0093478 11.3199699,10.6804348 C10.651687,7.38391304 4.65199158,6.40086957 4.20275696,4.55673913 C4.14037513,4.28478534 4.13531845,4.00291044 4.18790623,3.72891304 C4.29928672,3.2226087 4.64456622,2.67195652 5.63213985,2.67195652 C6.56031056,2.67195652 7.09864957,3.24108696 7.09864957,4.09847826 L7.09864957,5.07413043 L11.0452314,5.07413043 L11.0452314,3.96543478 C11.0452314,0.535869565 7.95256662,0 5.71753156,0 C2.90331797,0 0.605167301,0.927608696 0.185634141,3.49608696 C0.0742536566,4.19826087 0.0556902424,4.82652174 0.22276097,5.6173913 C0.909607293,8.8326087 6.52689641,9.76391304 7.34368664,11.8002174" id="S"></path>
                </g>
                <path d="M70.53137,13.5468325 C71.6262463,13.5468325 71.9628469,12.8073212 72.0405239,12.4303154 C72.0738141,12.2635629 72.077513,12.0388094 72.077513,11.8394314 L72.077513,0.420506442 L76.0649667,0.420506442 L76.0649667,11.487801 C76.065685,11.8264758 76.0533465,12.165057 76.0279454,12.5028165 C75.7505274,15.3847357 73.4276139,16.32 70.53137,16.32 C67.6314271,16.32 65.3085136,15.3847357 65.0310956,12.5028165 C65.0199989,12.3505642 64.9904077,11.7705553 64.9941066,11.487801 L64.9941066,0.416881386 L68.981528,0.416881386 L68.981528,11.8358063 C68.9778291,12.0388094 68.9852269,12.2635629 69.0185171,12.4303154 C69.0924952,12.8073212 69.4327947,13.5468325 70.53137,13.5468325 L70.53137,13.5468325 Z M89.7952762,0.420506442 L90.0098128,12.5390671 L89.924738,12.5390671 L86.2998094,0.420506442 L80.4555367,0.420506442 L80.4555367,15.6964904 L84.3282921,15.6964904 L84.1137555,3.15742337 L84.1988303,3.15742337 L88.0863813,15.6964904 L93.6976228,15.6964904 L93.6976228,0.420506442 L89.7952762,0.420506442 Z M103.388758,13.3873301 C104.528022,13.3873301 104.927504,12.6804442 104.997783,12.2635629 C105.031073,12.0931853 105.034772,11.8756819 105.034772,11.683554 L105.034772,9.43601955 L103.41835,9.43601955 L103.41835,7.18848512 L109,7.18848512 L109,11.3282985 C109,11.618303 108.992602,11.8285562 108.944516,12.3433141 C108.685593,15.1563572 106.196229,16.1604976 103.403554,16.1604976 C100.61088,16.1604976 98.1252142,15.1563572 97.8625918,12.3433141 C97.8182049,11.8285562 97.8071082,11.618303 97.8071082,11.3282985 L97.8071082,4.83219902 C97.8071082,4.5566948 97.8440973,4.07093736 97.8736885,3.81718347 C98.2250847,0.928014216 100.61088,0 103.403554,0 C106.196229,0 108.644905,0.920764105 108.93342,3.81355842 C108.985204,4.30656597 108.970409,4.82857397 108.970409,4.82857397 L108.970409,5.34695691 L104.997783,5.34695691 L104.997783,4.48056864 C104.997783,4.48056864 104.997783,4.11806308 104.949697,3.89330964 C104.875719,3.55255442 104.579806,2.76954243 103.373963,2.76954243 C102.227302,2.76954243 101.890701,3.51267881 101.805626,3.89330964 C101.757541,4.09631275 101.739046,4.37181697 101.739046,4.6219458 L101.739046,11.6799289 C101.739046,11.8756819 101.746444,12.0931853 101.776035,12.2671879 C101.850013,12.6804442 102.249495,13.3873301 103.388758,13.3873301 L103.388758,13.3873301 Z" id="Shape"></path>
            </g>
        </g>
    </g>
</svg>