<?xml version="1.0" encoding="UTF-8"?>
<svg width="82px" height="30px" viewBox="0 0 82 30" version="1.1" xmlns="http://www.w3.org/2000/svg" xmlns:xlink="http://www.w3.org/1999/xlink">
    <!-- Generator: Sketch 52.5 (67469) - http://www.bohemiancoding.com/sketch -->
    <title>Opera_2015_logo</title>
    <desc>Created with Sketch.</desc>
    <defs>
        <linearGradient x1="49.993807%" y1="2.15654269%" x2="49.993807%" y2="98.543393%" id="linearGradient-1">
            <stop stop-color="#E0E0E0" offset="0%"></stop>
            <stop stop-color="#CDCDCD" offset="30%"></stop>
            <stop stop-color="#B1B1B1" offset="61%"></stop>
            <stop stop-color="#969696" offset="100%"></stop>
        </linearGradient>
        <linearGradient x1="50.0050157%" y1="0.848469563%" x2="50.0050157%" y2="99.6017781%" id="linearGradient-2">
            <stop stop-color="#969696" offset="0%"></stop>
            <stop stop-color="#B2B2B2" offset="70%"></stop>
            <stop stop-color="#DBDBDB" offset="100%"></stop>
        </linearGradient>
    </defs>
    <g id="Landing-page" stroke="none" stroke-width="1" fill="none" fill-rule="evenodd">
        <g id="Pro-API-landing---testimonial" transform="translate(-664.000000, -533.000000)">
            <g id="Group-8" transform="translate(314.000000, 533.000000)">
                <g id="coinbase-vector-logo">
                    <g id="Opera_2015_logo" transform="translate(350.477987, 0.000000)">
                        <path d="M14.7643069,0.220588235 C6.6319227,0.220588235 0.0410282447,6.83823529 0.0410282447,15 C0.0410282447,22.9264706 6.25973791,29.3941176 14.0668268,29.7617647 C14.3012739,29.7735294 14.5327904,29.7794118 14.7672375,29.7794118 C18.5389054,29.7794118 21.9764862,28.3558824 24.5817798,26.0176471 C22.8556629,27.1676471 20.8364871,27.8264706 18.6795737,27.8264706 C15.1716588,27.8264706 12.0329981,26.0794118 9.92004345,23.3264706 C8.29063602,21.4 7.23562401,18.5470588 7.16528988,15.3470588 C7.16528988,15.3382353 7.16528988,14.6588235 7.16528988,14.65 C7.23562401,11.4529412 8.29063602,8.6 9.91711286,6.67058824 C12.0300675,3.91764706 15.1716588,2.17352941 18.6795737,2.17352941 C20.8364871,2.17352941 22.8556629,2.83529412 24.5817798,3.98529412 C21.9882086,1.65588235 18.5711419,0.235294118 14.8199881,0.220588235 C14.8024046,0.220588235 14.7818905,0.220588235 14.7643069,0.220588235 Z" id="Path" fill="url(#linearGradient-1)"></path>
                        <path d="M9.91711286,6.67058824 C11.2710449,5.07058824 13.0147453,4.10588235 14.9225587,4.10588235 C19.2100103,4.10588235 22.6856887,8.98529412 22.6856887,15 C22.6856887,21.0176471 19.2100103,25.8941176 14.9225587,25.8941176 C13.0147453,25.8941176 11.2710449,24.9294118 9.92004345,23.3294118 C12.0329981,26.0823529 15.1716588,27.8294118 18.6795737,27.8294118 C20.8364871,27.8294118 22.8556629,27.1676471 24.5817798,26.0205882 C27.5944252,23.3117647 29.4905162,19.3794118 29.4905162,15 C29.4905162,10.6235294 27.5944252,6.68823529 24.5788492,3.98235294 C22.8527323,2.83235294 20.8364871,2.17352941 18.6795737,2.17352941 C15.1716588,2.17352941 12.0329981,3.92058824 9.92004345,6.67352941" id="Path" fill="url(#linearGradient-2)"></path>
                        <path d="M40.7322552,9.16470588 C37.262438,9.16470588 34.4402808,12.1352941 34.4402808,15.7852941 C34.4402808,19.4352941 37.262438,22.4058824 40.7322552,22.4058824 C44.2020725,22.4058824 47.0242296,19.4352941 47.0242296,15.7852941 C47.0242296,12.1352941 44.2020725,9.16470588 40.7322552,9.16470588 Z M40.7322552,10.1588235 C43.656983,10.1588235 46.0336906,12.6823529 46.0336906,15.7852941 C46.0336906,18.8882353 43.656983,21.4117647 40.7322552,21.4117647 C37.8104581,21.4117647 35.4308199,18.8882353 35.4308199,15.7852941 C35.4308199,12.6823529 37.8075275,10.1588235 40.7322552,10.1588235 Z M52.2963591,12.6617647 C50.992247,12.6617647 49.8698314,13.2794118 49.1078783,14.2558824 L49.1078783,12.8794118 L48.0704499,12.8794118 L48.0704499,24.8558824 L49.1078783,24.8558824 L49.1078783,20.5617647 C49.8698314,21.5382353 50.992247,22.1558824 52.2963591,22.1558824 C54.7199561,22.1558824 56.6893118,20.0264706 56.6893118,17.4088235 C56.6893118,14.7911765 54.7170255,12.6617647 52.2963591,12.6617647 Z M76.3242575,12.6617647 C73.9006605,12.6617647 71.9313047,14.7911765 71.9313047,17.4088235 C71.9313047,20.0264706 73.9035911,22.1558824 76.3242575,22.1558824 C77.6283696,22.1558824 78.7507851,21.5382353 79.5127383,20.5617647 L79.5127383,21.9088235 L80.5501667,21.9088235 L80.5501667,12.8794118 L79.5127383,12.8794118 L79.5127383,14.2558824 C78.7537157,13.2794118 77.6283696,12.6617647 76.3242575,12.6617647 Z M62.0141919,12.6764706 C59.5905949,12.6764706 57.6212391,14.8058824 57.6212391,17.4235294 C57.6212391,20.0411765 59.5935254,22.1676471 62.0141919,22.1676471 C63.7461699,22.1676471 65.249562,21.0794118 65.9646257,19.5 L65.0707961,18.9764706 C64.5374289,20.25 63.368124,21.1352941 62.0171225,21.1352941 C60.2616997,21.1352941 58.8169194,19.6470588 58.6645288,17.7529412 L65.777068,17.7529412 L66.4012835,17.7529412 C66.4100752,17.6441176 66.4130058,17.5323529 66.4130058,17.4205882 C66.4130058,14.6264706 64.6048325,12.6735294 62.0200531,12.6735294 L62.0141919,12.6764706 Z M71.2162411,12.7 C70.8587092,12.7147059 70.5216915,12.8088235 70.2051879,12.9794118 C69.5399442,13.3352941 69.0798417,13.8764706 68.7867828,14.5676471 C68.7809217,14.5852941 68.7721299,14.6 68.7662687,14.6147059 C68.7633381,14.6147059 68.7604075,14.6147059 68.7545464,14.6147059 L68.7545464,12.9558824 L68.7545464,12.9382353 L67.7171179,12.9382353 L67.7171179,12.9558824 L67.7171179,21.9117647 L68.7545464,21.9117647 L68.7545464,21.85 C68.7545464,20.2352941 68.7545464,18.8147059 68.7545464,17.2029412 C68.7545464,16.5411765 68.857117,16.0029412 69.0739806,15.4794118 C69.2732606,14.9941176 69.5545971,14.5617647 69.9531572,14.2176471 C70.424982,13.8117647 70.9642104,13.6382353 71.5825647,13.7382353 C71.6822047,13.7558824 71.7818447,13.7764706 71.8873459,13.7970588 C71.9459577,13.5 72.086626,13.1205882 72.1481683,12.8205882 C71.8609706,12.7382353 71.4829246,12.6911765 71.2133105,12.7029412 L71.2162411,12.7 Z M52.2934285,13.6941176 C54.1514218,13.6941176 55.6606751,15.3617647 55.6606751,17.4088235 C55.6606751,19.4588235 54.1484913,21.1235294 52.2934285,21.1235294 C50.4354351,21.1235294 48.9261818,19.4558824 48.9261818,17.4088235 C48.9261818,15.3588235 50.4383657,13.6941176 52.2934285,13.6941176 Z M76.3213269,13.6941176 C78.1793203,13.6941176 79.6885736,15.3617647 79.6885736,17.4088235 C79.6885736,19.4588235 78.1763897,21.1235294 76.3213269,21.1235294 C74.4633336,21.1235294 72.9540803,19.4558824 72.9540803,17.4088235 C72.9540803,15.3588235 74.4662642,13.6941176 76.3213269,13.6941176 Z M62.0112613,13.7088235 C63.8458099,13.7088235 65.1294079,14.95 65.3433409,16.85 L58.6879735,16.85 C58.9400041,15.0735294 60.3320338,13.7088235 62.0112613,13.7088235 Z" id="Shape" fill="#969696" fill-rule="nonzero"></path>
                    </g>
                </g>
            </g>
        </g>
    </g>
</svg>