<?xml version="1.0" encoding="UTF-8"?>
<svg width="176px" height="44px" viewBox="0 0 176 44" version="1.1" xmlns="http://www.w3.org/2000/svg" xmlns:xlink="http://www.w3.org/1999/xlink">
    <!-- Generator: sketchtool 51.3 (57544) - http://www.bohemiancoding.com/sketch -->
    <title>C032CB0A-49F9-4623-875E-1CB062D644A9</title>
    <desc>Created with sketchtool.</desc>
    <defs></defs>
    <g id="Landing-page" stroke="none" stroke-width="1" fill="none" fill-rule="evenodd">
        <g id="Pro-API-landing---testimonial" transform="translate(-1129.000000, -545.000000)" fill-rule="nonzero">
            <g id="Group-8" transform="translate(361.000000, 541.000000)">
                <g id="Vela-logo-Crypto-API" transform="translate(768.000000, 4.000000)">
                    <g id="Group-7" transform="translate(133.000000, 0.000000)">
                        <path d="M13.1011901,20.5095157 C11.797198,20.5079709 10.7404909,19.4572827 10.7389373,18.1607179 C10.740232,16.8639707 11.7970148,15.8129982 13.1011901,15.811453 C14.4053655,15.8129982 15.4621482,16.8639707 15.4634429,18.1607179 C15.4621482,19.4574652 14.4053655,20.5084377 13.1011901,20.5099829 L13.1011901,20.5095157 Z M30.3639151,20.5095157 C29.0599229,20.5079709 28.0032159,19.4572827 28.0016623,18.1607179 C28.0029565,16.8641529 29.0594533,15.8132556 30.3634451,15.811453 C31.6676205,15.8129982 32.7244032,16.8639707 32.7256979,18.1607179 C32.7244032,19.4574652 31.6676205,20.5084377 30.3634451,20.5099829 L30.3639151,20.5095157 Z M21.7325526,35.3783818 C20.4283772,35.3768365 19.3715945,34.325864 19.3702998,33.0291168 C19.3715945,31.7323696 20.4283772,30.6813971 21.7325526,30.6798519 C23.0365444,30.6816545 24.0930413,31.7325517 24.0943355,33.0291168 C24.0930413,34.3256819 23.0365444,35.3765791 21.7325526,35.3783818 Z M38.9985669,35.3779145 C37.6945751,35.3761119 36.6380782,34.3252147 36.636784,33.0286496 C36.6383371,31.7322669 37.6947583,30.681654 38.9985669,30.6798519 C40.302559,30.6813966 41.3592661,31.7320848 41.3608197,33.0286496 C41.359525,34.3253968 40.3027423,35.3763693 38.9985669,35.3779145 Z M4.46606832,35.3779145 C3.16189298,35.3763693 2.10511024,34.3253968 2.10381554,33.0286496 C2.10536914,31.7320848 3.1620762,30.6813966 4.46606832,30.6798519 C5.77006045,30.6813966 6.8267675,31.7320848 6.82832111,33.0286496 C6.82702641,34.3253968 5.77024367,35.3763693 4.46606832,35.3779145 Z M21.7325526,5.64205128 C20.4283772,5.64050603 19.3715945,4.58953355 19.3702998,3.29278632 C19.3715945,1.9960391 20.4283772,0.945066623 21.7325526,0.943521368 C23.0365444,0.945324019 24.0930413,1.99622124 24.0943355,3.29278632 C24.0927824,4.58916895 23.0363612,5.63978193 21.7325526,5.64158405 L21.7325526,5.64205128 Z" id="Combined-Shape" fill="#FFFFFF"></path>
                        <path d="M41.0751126,30.7289117 C42.0405069,28.3060385 42.5339012,25.7227823 42.5290235,23.1166952 C42.5290235,20.3249573 41.9792252,17.6159202 40.894666,15.0657436 C39.850913,12.6083241 38.3373735,10.3757002 36.4380108,8.4917265 C34.5438693,6.60272857 32.2989176,5.09732251 29.8277443,4.05905413 C28.210639,3.37789632 26.5125268,2.90526501 24.7747695,2.65267236 C24.4777845,1.25376638 23.2264061,0.199680912 21.7325526,0.199680912 C20.2382292,0.199680912 18.9868508,1.25376638 18.6898657,2.65267236 C16.9521095,2.90527003 15.2539979,3.37790116 13.636891,4.05905413 C11.1657177,5.09732251 8.92076597,6.60272857 7.02662441,8.4917265 C5.12743035,10.3757415 3.61405232,12.6083625 2.57043917,15.0657436 C1.48642884,17.6127439 0.930392413,20.3510282 0.935611754,23.1166952 C0.930734077,25.7227823 1.42412839,28.3060385 2.38952266,30.7289117 C1.73193175,31.3145263 1.35629932,32.1508921 1.35665383,33.0286496 C1.35820691,34.7357374 2.74920239,36.119437 4.46606832,36.121755 C4.8044057,36.121755 5.12958552,36.0670883 5.43455907,35.967567 C5.93091573,36.5886772 6.46246582,37.181159 7.02662441,37.7421311 C8.92081509,39.6309522 11.1657621,41.1361964 13.636891,42.1743362 C16.1979002,43.2525045 18.9514478,43.8055441 21.7325526,43.8003191 C24.539813,43.8003191 27.2634289,43.2531852 29.8277443,42.1743362 C32.2988789,41.1362069 34.5438278,39.6309614 36.4380108,37.7421311 C37.0021524,37.181143 37.5337016,36.5886622 38.0300762,35.967567 C38.3426186,36.0697932 38.6695486,36.121842 38.9985669,36.121755 C40.7156164,36.1196944 42.1068978,34.7359195 42.1084513,33.0286496 C42.1084513,32.116604 41.7090253,31.2952023 41.0751126,30.7289117 M21.7325526,1.68689459 C22.624413,1.68702361 23.3473035,2.40600583 23.3471737,3.29278632 C23.347044,4.17956682 22.6239431,4.89833985 21.7320827,4.89821083 C20.8402223,4.89821083 20.1172265,4.1793332 20.1172265,3.29255271 C20.1172265,2.40577221 20.8402223,1.68689459 21.7320827,1.68689459 M4.16156468,15.734359 C5.11888962,13.4809077 6.50699043,11.4336246 8.24886819,9.70607407 C11.1099487,6.85300326 14.8131892,4.98377159 18.818152,4.37116809 C19.2723485,5.58094021 20.4338391,6.38350564 21.7325526,6.38495726 C22.4416363,6.38530361 23.1293622,6.14367802 23.680812,5.70045584 C25.0905511,6.88583476 26.2982275,8.30389744 27.2399333,9.8934359 C28.2230864,11.5552834 28.9007831,13.3779174 29.2412928,15.276 C28.7749455,15.4567359 28.3591356,15.7463052 28.0289172,16.1202963 C26.0132091,15.3791492 23.8811964,14.9996294 21.7320827,14.999396 C19.5601447,14.999396 17.445536,15.3755214 15.4343083,16.1179601 C14.8449816,15.450153 13.9947203,15.0673735 13.1011901,15.0676125 C12.0990595,15.0692207 11.1589612,15.5503228 10.5752599,16.3602756 C9.99155855,17.1702283 9.83561005,18.2100174 10.1562452,19.1540627 C9.72565507,19.5102238 9.31169783,19.8858083 8.91567477,20.2796353 C7.26025162,21.9216586 5.9410925,23.8675463 5.0313737,26.0093561 C4.50920564,27.2353939 4.12651308,28.5156283 3.89042487,29.8262108 C3.07465155,27.6824439 2.65871597,25.4087783 2.66301204,23.1166952 C2.6580242,20.5807883 3.16754632,18.0699366 4.16109477,15.734359 M21.7325526,31.4227578 C22.624413,31.4228869 23.3473035,32.1418691 23.3471737,33.0286496 C23.347044,33.9154301 22.6239431,34.6342031 21.7320827,34.6340741 C20.8402223,34.6340741 20.1172265,33.9151964 20.1172265,33.028416 C20.1172265,32.1416355 20.8402223,31.4227578 21.7320827,31.4227578 M23.6803421,30.6200456 C23.1290676,30.1768909 22.4414572,29.9354125 21.7325526,29.9360114 C20.9947891,29.9360114 20.3167046,30.1929915 19.7833533,30.6209801 C19.4322338,30.325458 19.0936048,30.0155691 18.7683412,29.692114 C16.3978325,27.3408813 14.8105268,24.3226562 14.2209928,21.0454359 C15.5866189,20.5190185 16.3990729,19.1178655 16.1730116,17.6789972 C17.9557639,17.0397276 19.8369422,16.7143334 21.7320827,16.7174245 C23.6357003,16.7174245 25.5181719,17.0468262 27.2911538,17.6813333 C27.0664435,19.1184639 27.877493,20.5175195 29.2408229,21.0445014 C28.9003477,22.943104 28.2224851,24.7662308 27.2389934,26.4284672 C26.2979004,28.0144314 25.0948531,29.4314478 23.6803421,30.6200456 M13.1011901,19.7661425 C12.2093297,19.7661425 11.486334,19.0472648 11.486334,18.1604843 C11.486334,17.2737038 12.2093297,16.5548262 13.1011901,16.5548262 C13.9930505,16.5548262 14.7160462,17.2737038 14.7160462,18.1604843 C14.7160462,19.0472648 13.9930505,19.7661425 13.1011901,19.7661425 M28.7492939,18.1602507 C28.7492939,17.2735992 29.4721844,16.5548262 30.3639151,16.5548262 C31.2556457,16.5548262 31.9785362,17.2735992 31.9785362,18.1602507 C31.9785362,19.0470312 31.2555405,19.7659088 30.3636801,19.7659088 C29.4718197,19.7659088 28.748824,19.0470312 28.748824,18.1602507 M4.46606832,34.6340741 C3.57420792,34.6340741 2.85121221,33.9151964 2.85121221,33.028416 C2.85121221,32.1416355 3.57420792,31.4227578 4.46606832,31.4227578 C5.35792873,31.4227578 6.08092444,32.1416355 6.08092444,33.028416 C6.08092444,33.9151964 5.35792873,34.6340741 4.46606832,34.6340741 M35.216237,36.5263818 C31.6443829,40.0886727 26.7915864,42.0880837 21.7325526,42.0818234 C16.6734443,42.0882285 11.8205035,40.0889958 8.24839828,36.526849 C7.75989978,36.040925 7.29808904,35.5291823 6.86497433,34.9938462 C7.32491788,34.4409525 7.57622261,33.745703 7.57548282,33.0281823 C7.57401341,31.7517249 6.7852476,30.6068494 5.58869055,30.1443989 C6.17773304,26.8658619 7.76543524,23.8463649 10.1369787,21.4944501 C10.4617839,21.1714729 10.7999429,20.8620514 11.1505811,20.5669858 C11.5405251,20.8806655 12.0012348,21.0955184 12.4931226,21.1930826 C13.1213161,24.8745538 14.8876754,28.2698897 17.5465673,30.9069288 C17.9450536,31.3031453 18.3595169,31.6778689 18.7880776,32.0329687 C18.4667423,32.9770897 18.6222158,34.0172944 19.2057902,34.8277001 C19.7893647,35.6381058 20.7296558,36.1195817 21.7320827,36.1212877 C22.6265791,36.1216546 23.4777046,35.7381132 24.0670805,35.0690712 C26.0821733,35.8121504 28.2147067,36.1908135 30.3639151,36.1871681 C32.452151,36.1871472 34.5247501,35.82914 36.4906411,35.1288775 C36.0891184,35.6153359 35.6638044,36.0818886 35.216237,36.526849 M38.9990368,34.6345413 C38.1070467,34.6345413 37.3839458,33.9155591 37.3839458,33.0286496 C37.3839458,32.1417401 38.1070467,31.4227578 38.9990368,31.4227578 C39.8908972,31.4227578 40.613893,32.1416355 40.613893,33.028416 C40.613893,33.9151964 39.8908972,34.6340741 38.9990368,34.6340741 M39.5150013,29.9785299 C38.5297657,29.8152606 37.5255631,30.1318716 36.814974,30.8298104 C36.1043849,31.5277492 35.7736826,32.5222787 35.9258056,33.5038291 C34.1415947,34.142319 32.2596947,34.4689102 30.3634451,34.4691396 C28.4683299,34.4724092 26.5871475,34.1471724 24.804374,33.5080342 C24.8821945,33.0128005 24.8381767,32.5061923 24.6760878,32.031567 C26.2903648,30.6981795 27.6608839,29.0975729 28.727208,27.3003305 C29.8416846,25.4172256 30.6012829,23.3477495 30.9686931,21.1935499 C32.3944092,20.913208 33.4733296,19.6596125 33.4733296,18.1602507 C33.4733296,16.6604217 32.3944092,15.4072934 30.9686931,15.1264843 C30.6014192,12.9728282 29.8421451,10.9038427 28.7281478,9.02110541 C27.6902562,7.27128817 26.36384,5.70745058 24.804374,4.39499715 C26.299558,4.63530401 27.7602154,5.05368643 29.1548288,5.64111681 C31.421,6.59324705 33.479712,7.97377243 35.2167069,9.70607407 C36.9584253,11.4336583 38.3463659,13.4809405 39.3035405,15.734359 C40.2972498,18.0698872 40.8067786,20.5807718 40.8016232,23.1166952 C40.8016232,25.4883875 40.3693032,27.7937322 39.5150013,29.9785299" id="Shape" fill="#969696"></path>
                        <polygon id="Shape" fill="#3F3F3F" points="38.9562747 3.17410826 38.3077948 3.17410826 38.3077948 2.74425071 40.0746678 2.74425071 40.0746678 3.17410826 39.4252479 3.17410826 39.4252479 4.8645698 38.9562747 4.8645698"></polygon>
                        <polygon id="Shape" fill="#3F3F3F" points="40.4336813 2.74425071 40.9393077 2.74425071 41.499444 3.64087749 42.0600503 2.74378348 42.5656767 2.74378348 42.5656767 4.8645698 42.099523 4.8645698 42.099523 3.48014815 41.499444 4.38611966 41.4876962 4.38611966 40.8932562 3.48902564 40.8932562 4.8645698 40.4336813 4.8645698"></polygon>
                    </g>
                    <path d="M13.9728451,12.4166622 L8.63170243,26.5516383 C8.61718161,26.5918214 8.58108149,26.618311 8.54084082,26.618311 C8.50060015,26.618311 8.46450003,26.5918214 8.44997921,26.5516383 L3.18138763,12.4174021 C3.15169207,12.337823 3.07970104,12.2856539 2.9996644,12.2857143 L0.195046278,12.2857143 C0.056853712,12.2857143 -0.0378081957,12.4366374 0.0147049794,12.5742436 L8.20676029,34.0903909 C8.25171473,34.2079932 8.35836253,34.2850627 8.47704071,34.2857102 C8.59571889,34.2863577 8.70309469,34.2104559 8.74916611,34.0933502 L17.1374549,12.5764631 C17.1625902,12.5119815 17.1560263,12.4383241 17.1199557,12.3800954 C17.083885,12.3218667 17.0230623,12.2867419 16.9578045,12.2864542 L14.1524954,12.2864542 C14.072881,12.2865742 14.0012834,12.3383637 13.9714632,12.4174021" id="Shape" fill="#969696"></path>
                    <path d="M94.1653832,12.4796455 L85.7778006,33.9957065 C85.7526632,34.0601878 85.7592276,34.1338449 85.7953012,34.1920734 C85.8313747,34.2503018 85.8922024,34.2854264 85.9574654,34.2857142 L88.7609275,34.2857142 C88.8403946,34.2857142 88.9122605,34.2339271 88.9419743,34.1555067 L94.2849294,20.0198474 C94.2995935,19.979723 94.3357908,19.9533798 94.3760351,19.9535436 C94.4162794,19.9537075 94.4522885,19.9803446 94.4666672,20.0205872 L99.7336103,34.154027 C99.7633082,34.2336058 99.8353051,34.2857747 99.9153481,34.2857142 L102.720192,34.2857142 C102.858396,34.2857142 102.953065,34.1355316 102.900548,33.9971861 L94.7078327,12.4818649 C94.6632384,12.363724 94.5563219,12.2862036 94.4373041,12.2857166 C94.3182864,12.2852296 94.2108196,12.3618729 94.1653832,12.4796455" id="Shape" fill="#969696"></path>
                    <path d="M31.1864407,12.4900217 L31.1864407,32.5099783 C31.1864407,32.623322 31.2752451,32.7142857 31.3843277,32.7142857 L41.9031086,32.7142857 C41.9555915,32.7142857 42.0059249,32.6927605 42.0430359,32.6544455 C42.0801469,32.6161304 42.1009957,32.564164 42.1009957,32.5099783 L42.1009957,30.0214712 C42.1009957,29.9086354 42.0123986,29.8171639 41.9031086,29.8171639 L34.2715209,29.8171639 C34.217069,29.8171639 34.172927,29.7715897 34.172927,29.7153711 L34.172927,23.0930689 C34.172927,23.0367581 34.2169796,22.9905543 34.2715209,22.9905543 L40.7521471,22.9905543 C40.8611647,22.990555 40.949649,22.8995226 40.9500342,22.7869688 L40.9500342,20.2977398 C40.949649,20.185186 40.8611647,20.0941536 40.7521471,20.0941544 L34.2715209,20.0941544 C34.2452505,20.094155 34.2200662,20.0833314 34.2015561,20.0640852 C34.1830459,20.0448389 34.1727406,20.0187617 34.172927,19.9916397 L34.172927,15.2846289 C34.1729263,15.2576977 34.1833361,15.2318799 34.2018464,15.2129046 C34.2203567,15.1939292 34.2454366,15.1833657 34.2715209,15.1835581 L41.9038079,15.1835581 C42.0130979,15.1835581 42.1016949,15.0920865 42.1016949,14.9792507 L42.1016949,12.4900217 C42.1016949,12.435836 42.0808462,12.3838696 42.0437351,12.3455545 C42.0066241,12.3072395 41.9562908,12.2857143 41.9038079,12.2857143 L31.3843277,12.2857143 C31.2750377,12.2857143 31.1864407,12.3771858 31.1864407,12.4900217" id="Shape" fill="#969696"></path>
                    <path d="M60.8135593,12.4900217 L60.8135593,32.5099783 C60.8135593,32.623322 60.9079436,32.7142857 61.0238801,32.7142857 L69.9591707,32.7142857 C70.0149513,32.7142857 70.0684472,32.6927605 70.10789,32.6544455 C70.1473328,32.6161304 70.1694915,32.564164 70.1694915,32.5099783 L70.1694915,30.0214712 C70.1694915,29.9672855 70.1473328,29.9153192 70.10789,29.8770041 C70.0684472,29.838689 70.0149513,29.8171639 69.9591707,29.8171639 L64.0902537,29.8171639 C64.0323804,29.8171639 63.9854648,29.7715897 63.9854648,29.7153711 L63.9854648,12.4900217 C63.9854648,12.435836 63.9633061,12.3838696 63.9238633,12.3455545 C63.8844205,12.3072395 63.8309246,12.2857143 63.775144,12.2857143 L61.0238801,12.2857143 C60.9680996,12.2857143 60.9146037,12.3072395 60.8751609,12.3455545 C60.8357181,12.3838696 60.8135593,12.435836 60.8135593,12.4900217" id="Shape" fill="#969696"></path>
                </g>
            </g>
        </g>
    </g>
</svg>