<?xml version="1.0" encoding="UTF-8"?>
<svg width="92px" height="29px" viewBox="0 0 92 29" version="1.1" xmlns="http://www.w3.org/2000/svg" xmlns:xlink="http://www.w3.org/1999/xlink">
    <!-- Generator: Sketch 52.5 (67469) - http://www.bohemiancoding.com/sketch -->
    <title>Group 9</title>
    <desc>Created with Sketch.</desc>
    <g id="Landing-page" stroke="none" stroke-width="1" fill="none" fill-rule="evenodd">
        <g id="Pro-API-landing---testimonial" transform="translate(-1265.000000, -533.000000)">
            <g id="Group" transform="translate(1076.805031, 533.000000)">
                <g id="Group-9" transform="translate(188.000000, 0.000000)">
                    <path d="M6.16855346,9.9375 L13.7591195,9.9375 L7.9490566,27.65625 L0.358490566,27.65625 L6.16855346,9.9375 Z M15.727044,9.9375 L23.3176101,9.9375 L23.3176101,13.5 C24.5358491,11.0625 26.5037736,9.46875 30.1584906,9.65625 L30.1584906,16.21875 L29.408805,16.21875 C25.472956,16.21875 23.2238994,18.09375 23.2238994,22.21875 L23.2238994,27.75 L15.6333333,27.75 L15.6333333,9.9375 L15.727044,9.9375 Z M31.1893082,18.9375 C31.1893082,13.6875 35.6874214,9.5625 42.0597484,9.5625 C49.4628931,9.5625 52.9301887,14.0625 52.9301887,19.21875 L52.9301887,20.53125 L38.4987421,20.53125 C39.0610063,22.5 40.8415094,23.4375 43.1842767,23.4375 C44.9647799,23.4375 46.3704403,22.875 47.963522,21.65625 L52.1805031,24.46875 C50.1188679,26.625 47.1201258,28.03125 42.809434,28.03125 C35.9685535,28.125 31.1893082,24.375 31.1893082,18.9375 Z M45.8081761,17.34375 C45.527044,15.375 44.1213836,14.15625 42.0597484,14.15625 C40.0918239,14.15625 38.6861635,15.46875 38.3113208,17.34375 L45.8081761,17.34375 Z M53.5861635,25.5 L56.3974843,21.75 C58.8339623,23.0625 61.5515723,23.8125 63.8006289,23.8125 C65.1125786,23.8125 65.6748428,23.4375 65.6748428,22.875 L65.6748428,22.78125 C65.6748428,22.125 64.4566038,21.75 62.2075472,21.28125 C57.990566,20.34375 54.5232704,19.21875 54.5232704,15.65625 L54.5232704,15.5625 C54.5232704,11.8125 58.1779874,9.65625 63.1446541,9.65625 C66.3308176,9.65625 69.5169811,10.40625 72.0471698,11.71875 L69.4232704,15.65625 C67.1742138,14.625 64.7377358,14.0625 63.0509434,14.0625 C61.9264151,14.0625 61.2704403,14.4375 61.2704403,14.90625 L61.2704403,15 C61.2704403,15.65625 62.4886792,16.03125 64.7377358,16.59375 C68.954717,17.53125 72.4220126,18.75 72.4220126,22.21875 L72.4220126,22.3125 C72.4220126,26.25 68.8610063,28.21875 63.6132075,28.21875 C60.1459119,28.125 56.5849057,27.28125 53.5861635,25.5 Z M73.2654088,25.5 L76.0767296,21.75 C78.5132075,23.0625 81.2308176,23.8125 83.4798742,23.8125 C84.7918239,23.8125 85.3540881,23.4375 85.3540881,22.875 L85.3540881,22.78125 C85.3540881,22.125 84.1358491,21.75 81.8867925,21.28125 C77.6698113,20.34375 74.2025157,19.21875 74.2025157,15.65625 L74.2025157,15.5625 C74.2025157,11.8125 77.8572327,9.65625 82.8238994,9.65625 C86.0100629,9.65625 89.1962264,10.40625 91.7264151,11.71875 L89.1025157,15.65625 C86.8534591,14.625 84.4169811,14.0625 82.7301887,14.0625 C81.6056604,14.0625 80.9496855,14.4375 80.9496855,14.90625 L80.9496855,15 C80.9496855,15.65625 82.1679245,16.03125 84.4169811,16.59375 C88.6339623,17.53125 92.1012579,18.75 92.1012579,22.21875 L92.1012579,22.3125 C92.1012579,26.25 88.5402516,28.21875 83.2924528,28.21875 C79.8251572,28.125 76.2641509,27.28125 73.2654088,25.5 Z" id="Shape" fill="#969696" fill-rule="nonzero"></path>
                    <ellipse id="Oval" fill="#797979" cx="11.0415094" cy="4.03125" rx="4.02955975" ry="4.03125"></ellipse>
                </g>
            </g>
        </g>
    </g>
</svg>