<svg id="af0784e5-610c-4ecd-98ba-e0309c3f3c88" data-name="Layer 1" xmlns="http://www.w3.org/2000/svg" width="865.76" height="682.89" viewBox="0 0 865.76 682.89"><g id="a31a8181-3953-44a0-a7e6-6d675b017224" data-name="freepik--background-simple--inject-1"><path d="M846.5,506.52c18-135.29-69.36-315.09-159.78-389.33C523.35-16.86,387.63,9.06,282.05,57.05S161.5,265.39,88.6,337.9-25.75,508,84.84,605.08s199.9,47.76,315.43,41.59,269,42.33,351.89.17C810.09,617.41,838.6,566.39,846.5,506.52Z" fill="#f28202"/><path d="M846.5,506.52c18-135.29-69.36-315.09-159.78-389.33C523.35-16.86,387.63,9.06,282.05,57.05S161.5,265.39,88.6,337.9-25.75,508,84.84,605.08s199.9,47.76,315.43,41.59,269,42.33,351.89.17C810.09,617.41,838.6,566.39,846.5,506.52Z" fill="#fff" opacity="0.8" style="isolation:isolate"/></g><g id="a56cd047-64ac-4a8c-bec2-2569f4e8823e" data-name="freepik--Floor--inject-1"><path d="M27.18,529.38c10.3,25,28.8,50.34,57.66,75.66,110.6,97.09,199.9,47.76,315.43,41.59s269,42.33,351.89.17c50.38-25.6,78.53-67.6,90.24-117.46Z" fill="#f28202"/><path d="M27.18,529.38c10.3,25,28.8,50.34,57.66,75.66,110.6,97.09,199.9,47.76,315.43,41.59s269,42.33,351.89.17c50.38-25.6,78.53-67.6,90.24-117.46Z" fill="#fff" opacity="0.5" style="isolation:isolate"/></g><rect x="84.84" y="91.79" width="645.25" height="465.22" rx="25.28" fill="#e6e7e8"/><line x1="136.56" y1="325.07" x2="297.2" y2="325.07" fill="none" stroke="#d1d3d4" stroke-miterlimit="10"/><line x1="136.56" y1="358.46" x2="297.2" y2="358.46" fill="none" stroke="#d1d3d4" stroke-miterlimit="10"/><line x1="136.56" y1="391.85" x2="297.2" y2="391.85" fill="none" stroke="#d1d3d4" stroke-miterlimit="10"/><line x1="136.56" y1="425.25" x2="297.2" y2="425.25" fill="none" stroke="#d1d3d4" stroke-miterlimit="10"/><line x1="136.56" y1="456.83" x2="297.2" y2="456.83" fill="none" stroke="#d1d3d4" stroke-miterlimit="10"/><line x1="136.56" y1="490.22" x2="297.2" y2="490.22" fill="none" stroke="#d1d3d4" stroke-miterlimit="10"/><rect x="427.28" y="201.25" width="35.67" height="37.18" fill="#d1d3d4" opacity="0.5"/><rect x="481.16" y="201.25" width="35.67" height="37.18" fill="#d1d3d4" opacity="0.5"/><g opacity="0.5"><rect x="535.39" y="201.25" width="35.67" height="37.18" fill="#d1d3d4"/><rect x="588.51" y="201.25" width="35.67" height="37.18" fill="#d1d3d4"/><rect x="642.39" y="201.25" width="35.67" height="37.18" fill="#d1d3d4"/></g><g opacity="0.5"><rect x="374.16" y="252.38" width="35.67" height="37.18" fill="#d1d3d4"/><rect x="427.28" y="252.38" width="35.67" height="37.18" fill="#d1d3d4"/><rect x="481.16" y="252.38" width="35.67" height="37.18" fill="#d1d3d4"/><rect x="535.39" y="252.38" width="35.67" height="37.18" fill="#d1d3d4"/><rect x="588.51" y="252.38" width="35.67" height="37.18" fill="#d1d3d4"/><rect x="642.39" y="252.38" width="35.67" height="37.18" fill="#d1d3d4"/></g><g opacity="0.5"><rect x="374.16" y="299.31" width="35.67" height="37.18" fill="#d1d3d4"/><rect x="427.28" y="299.31" width="35.67" height="37.18" fill="#d1d3d4"/><rect x="481.16" y="299.31" width="35.67" height="37.18" fill="#d1d3d4"/><rect x="535.39" y="299.31" width="35.67" height="37.18" fill="#d1d3d4"/><rect x="588.51" y="299.31" width="35.67" height="37.18" fill="#d1d3d4"/><rect x="642.39" y="299.31" width="35.67" height="37.18" fill="#d1d3d4"/></g><g opacity="0.5"><rect x="374.16" y="349.24" width="35.67" height="37.18" fill="#d1d3d4"/><rect x="427.28" y="349.24" width="35.67" height="37.18" fill="#d1d3d4"/><rect x="481.16" y="349.24" width="35.67" height="37.18" fill="#d1d3d4"/><rect x="535.39" y="349.24" width="35.67" height="37.18" fill="#d1d3d4"/><rect x="588.51" y="349.24" width="35.67" height="37.18" fill="#d1d3d4"/><rect x="642.39" y="349.24" width="35.67" height="37.18" fill="#d1d3d4"/></g><g opacity="0.5"><rect x="374.16" y="397.69" width="35.67" height="37.18" fill="#d1d3d4"/><rect x="427.28" y="397.69" width="35.67" height="37.18" fill="#d1d3d4"/><rect x="481.16" y="397.69" width="35.67" height="37.18" fill="#d1d3d4"/><rect x="535.39" y="397.69" width="35.67" height="37.18" fill="#d1d3d4"/><rect x="588.51" y="397.69" width="35.67" height="37.18" fill="#d1d3d4"/><rect x="642.39" y="397.69" width="35.67" height="37.18" fill="#d1d3d4"/></g><g opacity="0.5"><rect x="374.16" y="447.63" width="35.67" height="37.18" fill="#d1d3d4"/><rect x="427.28" y="447.63" width="35.67" height="37.18" fill="#d1d3d4"/><rect x="481.16" y="447.63" width="35.67" height="37.18" fill="#d1d3d4"/><rect x="535.39" y="447.63" width="35.67" height="37.18" fill="#d1d3d4"/><rect x="588.51" y="447.63" width="35.67" height="37.18" fill="#d1d3d4"/><rect x="642.39" y="447.63" width="35.67" height="37.18" fill="#d1d3d4"/></g><rect x="84.84" y="91.79" width="644.83" height="62.9" fill="#d1d3d4"/><circle cx="204.17" cy="147.38" r="64.79" fill="#f28202"/><path d="M221.5,146.36s5.64-8.1,1-16c0,0-3.93-7.61-11-9.08v-12H200.14v9.82h-4.91V110h-11.3v9.33h-5.4v11.29h5.65v38h-4.91v10.81h5.16v7.61H195v-7.86h4.67v7.61h11.54v-7.61s18.9.49,19.15-17.92A17.52,17.52,0,0,0,221.5,146.36Zm-26.27-16.2h10.7a7.12,7.12,0,1,1,0,14.23H195.23Zm24.07,31.57c.09,3.38-4.24,6.15-9.61,6.15H195.23V155.77h14.46c5.25,0,9.53,2.65,9.61,5.95Z" fill="#fff"/><rect x="449.07" y="124.95" width="116.47" height="117.2" rx="15.8" fill="#fff"/><rect x="474.39" y="189.9" width="22.42" height="37.99" fill="#f28202"/><rect x="496.81" y="167.79" width="22.73" height="60.1" fill="#1e1d25"/><rect x="518.92" y="139.45" width="23.67" height="88.75" fill="#f28202"/><rect x="210.59" y="263.04" width="305.63" height="135" rx="25.28" fill="#f28202"/><path d="M202.42,379.36c-.78,0-1.22,0-1.26,0a1,1,0,1,1,.11-2c.35,0,34.54,1.66,42.4-27.44.2-1.17,2.87-16.18,11.15-19.88,3.36-1.5,7.13-.94,11.2,1.66l.15.12c.32.31,8,7.78,14.53,22.41.61,1,11.93,19.59,26.73,18.37a1,1,0,0,1,.24,0c.12,0,13.14,1.77,24-21,.9-1.89,22.34-46.31,38.48-49.25a8.43,8.43,0,0,1,7.64,2.31c.87.55,6.29,4.41,17.8,21.07.22.38,17.13,30,32.53,26.64a1,1,0,0,1,.3,0c.1,0,11,.51,31.12-20.87,1.44-1.74,36.52-43.67,64.49-36.44a1,1,0,1,1-.49,1.91c-26.76-6.93-62.17,35.41-62.52,35.83-19.87,21.11-31,21.62-32.61,21.54a13.22,13.22,0,0,1-2.79.29c-15.82,0-31-26.63-31.7-27.83-11.94-17.27-17.17-20.45-17.22-20.48a.7.7,0,0,1-.19-.15,6.52,6.52,0,0,0-6-1.86c-15.16,2.76-36.84,47.71-37.06,48.16-11.13,23.22-24.45,22.26-26,22.07-16.34,1.24-28-18.55-28.51-19.39l-.05-.09c-6-13.59-13.29-21-14.05-21.78-3.44-2.18-6.55-2.67-9.24-1.47-7.47,3.33-10,18.29-10,18.44s0,.07,0,.1C238.21,377.82,208.87,379.36,202.42,379.36Z" fill="#fff"/><rect x="319.69" y="440.44" width="322.88" height="90.31" rx="17.9" fill="#fff"/><rect x="345.3" y="460.86" width="1.97" height="49.48" fill="#1e1d25"/><rect x="372.52" y="460.86" width="1.97" height="49.48" fill="#1e1d25"/><rect x="398.5" y="460.86" width="1.97" height="49.48" fill="#1e1d25"/><rect x="425.71" y="460.86" width="1.97" height="49.48" fill="#1e1d25"/><rect x="452.31" y="460.86" width="1.97" height="49.48" fill="#1e1d25"/><rect x="479.53" y="460.86" width="1.97" height="49.48" fill="#1e1d25"/><rect x="505.5" y="460.86" width="1.97" height="49.48" fill="#1e1d25"/><rect x="532.72" y="460.86" width="1.97" height="49.48" fill="#1e1d25"/><rect x="559.93" y="460.86" width="1.97" height="49.48" fill="#1e1d25"/><rect x="585.91" y="460.86" width="1.97" height="49.48" fill="#1e1d25"/><rect x="613.13" y="460.86" width="1.97" height="49.48" fill="#1e1d25"/><rect x="229.68" y="282.65" width="84.47" height="10.32" fill="#fff"/><rect x="229.68" y="301.99" width="41.27" height="10.32" fill="#fff"/><rect x="377.54" y="201.25" width="35.67" height="37.18" fill="#f28202"/><circle cx="619.21" cy="240.41" r="23.59" fill="#f28202"/><circle cx="583.69" cy="389.68" r="23.59" fill="#1e1d25"/><circle cx="316.63" cy="85.24" r="25.56" fill="#1e1d25"/><polygon points="604.79 248.73 603.36 247.38 614.74 235.3 621.08 242.52 632.07 232.14 633.42 233.57 620.95 245.35 614.69 238.23 604.79 248.73" fill="#fff"/><polygon points="635.89 234.92 633.93 234.7 634.25 231.83 630.95 231.67 631.05 229.7 636.44 229.97 635.89 234.92" fill="#fff"/><polygon points="580.25 398.01 572.9 391.41 574.87 389.21 580.11 393.91 591.5 382.12 593.62 384.17 580.25 398.01" fill="#fff"/><polygon points="310.38 102.64 322.43 102.64 322.43 83.12 328.21 83.12 316.64 68.66 304.84 83.12 310.62 83.12 310.38 102.64" fill="#fff"/><path d="M129.57,136s4.8-15.9,5.71-20.71a37.08,37.08,0,0,1,2.13-6.81.6.6,0,0,1,1.16.24v9s3.6-4.2,7.5-9.3,7.5-4.79,6,.61-5.4,11.39-5.69,12.29a87.19,87.19,0,0,1-3.6,11.4,48.75,48.75,0,0,1-6.3,9Z" fill="#f9b499"/><polygon points="72.44 213.99 73.08 201.28 89.77 192.87 107.94 207.23 105.4 223.71 72.44 213.99" fill="#f9b499"/><polygon points="107.94 207.23 106.22 219.37 87.45 196.8 107.94 207.23" fill="#f7a48b"/><path d="M110.07,148.05l19.5-12s1.78,1.73,6.9,5.69a2,2,0,0,1,.6,2.71L121.77,166Z" fill="#f28202"/><ellipse cx="104.07" cy="173.43" rx="26.78" ry="36.02" transform="translate(-24.36 17.18) rotate(-8.45)" fill="#f9b499"/><path d="M83,474.73s-6.35,38-14.63,73.15-5.92,83.88-5.92,83.88S58,641,62,645.42s10.25,3,11.71,3,11.7-.49,11.7-.49,7.84-46.36,10.8-88.31.48-105.82-2.44-103.38-9.26,15.12-9.26,15.12Z" fill="#1e1d25"/><path d="M83,474.73s-6.35,38-14.63,73.15-5.92,83.88-5.92,83.88S58,641,62,645.42s10.25,3,11.71,3,11.7-.49,11.7-.49,7.84-46.36,10.8-88.31.48-105.82-2.44-103.38-9.26,15.12-9.26,15.12Z" opacity="0.2"/><path d="M63,351.35s-5.91,34.14-4.44,43.89a170.38,170.38,0,0,0,5.37,21.94s13.17,58.53,14.63,62.92,0,56.57-3,79.48,2,38,3,45.36.49,31.21.49,31.21l-1,13.65s6.84,2.44,19,2.44,38,1.48,38,1.48,15.61-.49,14.14-7.3-19-10.25-23.88-14.65a106.3,106.3,0,0,1-8.3-8.28s.49-4.88-.49-7.32-4.88-2.44-4.44-5.84,8.79-81,15.13-101S138.52,407.45,138,393.31s-3.39-35.61-3.39-35.61Z" fill="#1e1d25"/><path d="M68.08,218.24s-14.4,30.59-16.49,51.59S60.88,343,60.88,343s-4.44,13.19-1.2,15.29,76.79,6,76.79,6,4.44-.61,4.44-4.44-1.2-6.59-1.8-9.89.9-70.8-5.7-85.78-20.1-33.3-20.1-33.3Z" fill="#f28202"/><path d="M81.06,342.92a.72.72,0,0,1-.74-.71.67.67,0,0,1,.16-.47C89,330.5,101,314.32,109.54,301.13a.74.74,0,1,1,1.24.81h0c-8.59,13.22-20.58,29.43-29.13,40.69A.7.7,0,0,1,81.06,342.92Z" opacity="0.2"/><path d="M72.43,354.15A.8.8,0,0,1,72,354a.74.74,0,0,1-.13-1l0,0,4.26-5.5a.73.73,0,0,1,1-.2.74.74,0,0,1,.2,1l-.06.07c-2.64,3.45-4.27,5.52-4.27,5.52A.72.72,0,0,1,72.43,354.15Z" opacity="0.2"/><path d="M77.15,316.48a.75.75,0,0,1-.24-1.48c2.83-.95,23.8-15.15,31.66-20.54a.74.74,0,1,1,1,1.11l-.15.1c-1.15.8-28.41,19.52-32,20.7Z" opacity="0.2"/><path d="M109.63,139.2s-16.95-14.25-20.54-13-1.81,7.5-1.81,7.5-8.69-3.32-9-.9L78,135.15s-15.59,9.3-19.79,19.23-4.81,19.49,0,24.89c3.71,4.17,11.54,16.59,14.89,22a21.87,21.87,0,0,0,6.1-.11c8.4-1.47,14.09-11.1,14.09-11.1s-5.69-1.79-5.91-9.29,4.43-9,4.43-9,4.2,4.81,7.8,2.71-4.44-6-5.7-9,1.81-7.19,2.4-9.29-5.69-1.48-8.09-2.7,10.49-7.21,13.19-9-3-.6-6.3-2.41S109.63,139.2,109.63,139.2Z" fill="#1e1d25"/><path d="M67.18,207.43c.9,0,47.7,14.7,47.7,14.7l.89,13.8L66,220.93Z" fill="#f28202"/><path d="M67.18,207.43c.9,0,47.7,14.7,47.7,14.7l.89,13.8L66,220.93Z" fill="#fff" opacity="0.2"/><path d="M75.88,273.72S131.67,298,147,299.51,231.56,229,231.56,229l-8.11-10.5S166.76,247.63,159.86,250s-64.19-15.9-68.39-16.79-13.51.59-17.1,5.4" fill="#f28202"/><path d="M72,284.06a.72.72,0,0,1-.72-.68.74.74,0,0,1,.67-.8l21.9-1.79a.75.75,0,0,1,.8.68h0a.76.76,0,0,1-.68.8l-21.89,1.79Z" opacity="0.2"/><path d="M224.87,234.62a.7.7,0,0,1-.54-.26L216,224a.69.69,0,1,1,1-1l.09.11,8.38,10.34a.69.69,0,0,1-.09,1A.75.75,0,0,1,224.87,234.62Z" opacity="0.2"/><path d="M223.45,218.54l8.41-11.7,3.59-10.8c.61-1.8,6.3-5.69,8.1-8.1s3.6-7.8,5.4-6.3,1.48,4.8.9,6.3-3.6,4.8-3.9,6.3,18-3.3,18-3.3,3,.9,2.1,3.3a35,35,0,0,1-3.9,6.3s-3.6,11.4-6.31,14.09-15.29,6.3-15.29,6.3l-9,8.11Z" fill="#f9b499"/><ellipse cx="92.41" cy="180.56" rx="5.39" ry="9.03" fill="#f9b499"/><path d="M746.83,236.89l-5.67-28.3-13.54-13.4L710,209.27s1.13,22,.42,27.88Z" fill="#f9b499"/><path d="M710,209.27l7.52-1.68L710.63,220C710.09,217.34,710.22,213,710,209.27Z" fill="#f7a48b"/><path d="M720.93,139.69s-4.8-12.69-18.51-11.32S682.55,140.71,685,147.91a61.42,61.42,0,0,0,3.77,9.61s-4.47-2.07-3.09,5.13,11.66,5.78,13.36,5.14S708.26,147.91,720.93,139.69Z" fill="#1e1d25"/><path d="M633.62,262.71l-24.34,12.17a2.71,2.71,0,0,0-1.2,3.63,2.76,2.76,0,0,0,1.08,1.14l64.93,36.52a2.72,2.72,0,0,0,3.39-.6l15.24-17.7a2.71,2.71,0,0,0-.3-3.83,3,3,0,0,0-.43-.3l-55.84-31A2.7,2.7,0,0,0,633.62,262.71Z" fill="#d1d3d4"/><path d="M693,284.63,682.72,278s-7.67-8.68-10.55-10.12-22.19,2-22.19,2l42.45,24Z" fill="#f9b499"/><path d="M672,274.14s-7.54.33-12.19-1.65-7.33-1.05-4.9,2.89S664.9,279,664.9,279s6.58,8,14.56,4.87" fill="#f9b499"/><path d="M675.71,285.24c-5.65,0-10.11-4.44-11.12-5.59-1.58,0-7.94-.16-10.27-3.92-1.14-1.85-1.32-3.27-.54-4.18,1-1.14,3.25-1.05,6.35.28,4.46,1.89,11.81,1.59,11.88,1.59a.68.68,0,0,1,.75.6.27.27,0,0,1,0,.09.72.72,0,0,1-.69.75c-.3,0-7.76.32-12.51-1.7-2.63-1.13-4.34-1.13-4.69-.67s-.18,1.09.68,2.48c2.17,3.51,9.25,3.23,9.32,3.23a.76.76,0,0,1,.6.26c0,.07,6.34,7.56,13.73,4.66a.71.71,0,0,1,.93.4.72.72,0,0,1-.4.94h0A10.85,10.85,0,0,1,675.71,285.24Z" fill="#f7a48b"/><path d="M775.85,619.31s4.33,16.49,3.94,19.35S770.47,644,765.46,644a120.63,120.63,0,0,0-15.06,1.79l.36-26.52Z" fill="#f28202"/><path d="M775.85,619.31s4.33,16.49,3.94,19.35S770.47,644,765.46,644a120.63,120.63,0,0,0-15.06,1.79l.36-26.52Z" opacity="0.2"/><path d="M779.79,638.66a18.54,18.54,0,0,0-.48-4.33,60.66,60.66,0,0,1-11,4.64c-6.09,1.74-14.77,1.83-17.85,1.8l-.07,5A120.63,120.63,0,0,1,765.46,644C770.47,644,779.43,641.54,779.79,638.66Z" fill="#1e1d25"/><path d="M779.79,638.66a18.54,18.54,0,0,0-.48-4.33,60.66,60.66,0,0,1-11,4.64c-6.09,1.74-14.77,1.83-17.85,1.8l-.07,5A120.63,120.63,0,0,1,765.46,644C770.47,644,779.43,641.54,779.79,638.66Z" opacity="0.2"/><path d="M745.38,460.88s4.66,39,6.45,46.61,10.75,20.42,14.33,40.46,10.41,66.66,10.41,67.75.71,4.33,1.07,6.44c0,0-7.89,3.24-13.61,2.52a82,82,0,0,1-10.76-2.15s2.5-15.41-2.89-43-10.66-56.19-14-76.32S745.38,460.88,745.38,460.88Z" fill="#1e1d25"/><path d="M745.38,460.88s4.66,39,6.45,46.61,10.75,20.42,14.33,40.46,10.41,66.66,10.41,67.75.71,4.33,1.07,6.44c0,0-7.89,3.24-13.61,2.52a82,82,0,0,1-10.76-2.15s2.5-15.41-2.89-43-10.66-56.19-14-76.32S745.38,460.88,745.38,460.88Z" opacity="0.2"/><path d="M727.1,615a44.37,44.37,0,0,1-8.24,9c-6.09,5.37-17.57,11.11-20.79,12.54s-5.78,1.44-5,4.67,6.09,5.78,22.23,5.78,33.33-.73,35.12-1.09,7.22-.36,7.22-4.33-1.79-19.71-1.79-19.71Z" fill="#f28202"/><path d="M750.4,645.83c1.79-.36,7.22-.36,7.22-4.34a23.19,23.19,0,0,0-.1-2.42c-6.14.81-20,2.53-35.74,3.86A70.47,70.47,0,0,1,693,640a4.12,4.12,0,0,0,.11,1.16c.71,3.22,6.09,5.78,22.23,5.78S748.61,646.15,750.4,645.83Z" fill="#1e1d25"/><path d="M689.14,378.45a500.77,500.77,0,0,0,3.58,60.22c3.95,31.89,15.42,70.61,15.42,70.61s5.78,31.17,7.52,41.91,11.05,53,11.05,53l-3.94,5.37.72,9.33,14.33,3.22a72.69,72.69,0,0,0,17.92,2.15s.73-18.64.37-21.14-2.52-14.34-2.89-18.28.7-47.69-1.8-57.71-6.82-24.74-6.82-37.57,9.68-76,9.68-76,10.4-14.7,10.4-23.31a59.86,59.86,0,0,0-1.07-12.89Z" fill="#1e1d25"/><path d="M741.65,617.94a.54.54,0,0,1-.53-.43s-.58-2.9-1.72-6.87c-1-3.53.43-5.09,1.11-5.62-.08-1.24-.45-6.11-1.12-12.85a.52.52,0,0,1,.47-.59h0a.54.54,0,0,1,.61.45v0c.78,7.84,1.14,13.15,1.14,13.2a.56.56,0,0,1-.29.53c-.07,0-1.88,1-.88,4.55,1.16,4,1.73,6.92,1.75,6.95a.54.54,0,0,1-.43.63Z" fill="#263238"/><path d="M739.18,585.84a.56.56,0,0,1-.53-.49c-.64-5.64-1.36-11.1-2.14-16.26-1.13-7.42-3.35-17.64-5.91-29.48-4-18.54-9-41.6-12.53-66.13a273.8,273.8,0,0,1-1.84-54.22.55.55,0,0,1,.58-.5.54.54,0,0,1,.49.57h0a273.89,273.89,0,0,0,1.85,54.08c3.5,24.48,8.49,47.53,12.5,66,2.58,11.85,4.8,22.09,5.93,29.56.78,5.16,1.44,10.65,2.15,16.3a.54.54,0,0,1-.47.59Z" opacity="0.2"/><path d="M717.23,413.48h0a.54.54,0,0,1-.49-.57v0c.85-10.2,2-16.62,2-16.68a.56.56,0,0,1,.62-.45.55.55,0,0,1,.45.63c0,.07-1.08,6.44-1.94,16.59A.55.55,0,0,1,717.23,413.48Z" fill="#263238"/><path d="M758.3,151.35s4.45-17.83,31.19-15.78S815.89,162,815.89,162l-5.78-2.75s4.8,14.06-.69,24.34-19.54,16.11-28.79,14.45S761.39,187.68,760,182.88,763.78,161.29,758.3,151.35Z" fill="#1e1d25"/><ellipse cx="714.53" cy="176.45" rx="33.93" ry="19.36" transform="translate(366.1 824.74) rotate(-75.62)" fill="#f9b499"/><ellipse cx="731.86" cy="180.24" rx="10.15" ry="5.77" transform="translate(441.73 875.9) rotate(-81.2)" fill="#f9b499"/><path d="M767.55,383.13,751.78,321s1.38-43.87-1.7-68.21a100,100,0,0,0-3.25-15.89C741.78,233,734,228,726.08,227.42c-9.21-.71-18.4,9.94-23.24,16.66-6,12.26-13.37,26.54-14.81,35.44-2.4,14.74,5.78,51.42,5.78,51.42l-7.88,53.47a109.37,109.37,0,0,0,43.53,5.47C753.16,387.87,767.55,383.13,767.55,383.13Z" fill="#f28202"/><path d="M725.05,136.94c-12.34-.33-19.89,12.34-19.89,12.34s-1.06,1.79-3.2,5.49c2.14-2.54,9.91-10.88,13.15-2.05,1.89,5.15-2.75,12.33-.35,14.74s7.23,7.88,6.52,8.9a11.43,11.43,0,0,0-1,3.43s6.17-8.9,11-3.43-2.17,16-2.17,16l-3.65,1.16s13.36,15.09,15.76,15.09c.67,0,2.4-5.14,5.48-6.17a109.23,109.23,0,0,0,11-11,36,36,0,0,0,3.44-37.37C755.43,142,737.39,137.29,725.05,136.94Z" fill="#1e1d25"/><path d="M725.81,242A17,17,0,0,0,712,252.67a61.55,61.55,0,0,0-3.78,13.86c-2.08,13.33-.35,56.89-.35,56.89s-29.13-8.22-38.74-13a139.56,139.56,0,0,1-12.68-6.85s-3.09-7.22-5.49-9.94-8.9-3.42-11.3-5.14-4.12-7.23-7.22-5.15a3.37,3.37,0,0,0-.34,5.78c1.38,1,6.51,6.17,6.51,6.17l-13-5.78s-1,5.15.68,6.87,5.14,4.8,5.14,4.8,5.15,7.22,8.24,8.9a57.18,57.18,0,0,0,9.6,3.44c3.06,1,6.15,3.64,8.9,5.3l17.47,10.62a156.39,156.39,0,0,0,28.59,13.46c6.24,2.19,21.51,8.9,26.93,2.18,2.34-2.89,1.62-11.56,2.23-15.18,3.83-23,8.77-46.12,8.77-69.52C739.5,244.4,732.13,241.33,725.81,242Z" fill="#f28202"/><path d="M725.81,242A17,17,0,0,0,712,252.67a61.55,61.55,0,0,0-3.78,13.86c-2.08,13.33-.35,56.89-.35,56.89s-29.13-8.22-38.74-13a139.56,139.56,0,0,1-12.68-6.85s-3.09-7.22-5.49-9.94-8.9-3.42-11.3-5.14-4.12-7.23-7.22-5.15a3.37,3.37,0,0,0-.34,5.78c1.38,1,6.51,6.17,6.51,6.17l-13-5.78s-1,5.15.68,6.87,5.14,4.8,5.14,4.8,5.15,7.22,8.24,8.9a57.18,57.18,0,0,0,9.6,3.44c3.06,1,6.15,3.64,8.9,5.3l17.47,10.62a156.39,156.39,0,0,0,28.59,13.46c6.24,2.19,21.51,8.9,26.93,2.18,2.34-2.89,1.62-11.56,2.23-15.18,3.83-23,8.77-46.12,8.77-69.52C739.5,244.4,732.13,241.33,725.81,242Z" opacity="0.2"/><path d="M697.52,320.37c-9.35-2.89-22.49-7-28.35-10a139.56,139.56,0,0,1-12.68-6.85s-3.09-7.23-5.49-9.94-8.9-3.43-11.3-5.15-4.12-7.22-7.23-5.14a3.36,3.36,0,0,0-1.43,4.54,3.45,3.45,0,0,0,1.1,1.24c1.38,1,6.51,6.17,6.51,6.17l-13-5.78s-1,5.14.68,6.86,5.14,4.8,5.14,4.8,5.15,7.23,8.24,8.9a55.47,55.47,0,0,0,9.6,3.44c3.06,1,6.15,3.64,8.9,5.31l17.47,10.62a157,157,0,0,0,17.47,9.06Z" fill="#f9b499"/><path d="M717.85,334.09a.85.85,0,0,1-.52-.21l-8-7.93,1.94,6.53a.75.75,0,0,1-.49.9.71.71,0,0,1-.89-.47v0l-2.75-9.25a.79.79,0,0,1,.32-.84.74.74,0,0,1,.88.11l10,9.95a.72.72,0,0,1,0,1h0A.81.81,0,0,1,717.85,334.09Z" fill="#f28202"/><circle cx="86.23" cy="94.31" r="25.56" fill="#f28202"/><polygon points="70.73 104.38 80.33 111.67 92.13 96.12 96.74 99.61 96.26 81.11 78.12 85.48 82.72 88.98 70.73 104.38" fill="#fff"/><circle cx="353.57" cy="192.12" r="51.1" fill="#1e1d25"/><path d="M368.91,209.83a13.41,13.41,0,0,1-5.27,4.77,19.13,19.13,0,0,1-8.26,2v5.08h-4v-5.14a18.76,18.76,0,0,1-10.74-4,12.22,12.22,0,0,1-4.33-9.32h11.42a5.15,5.15,0,0,0,3.65,4.83v-9.92a62,62,0,0,1-7.82-2.45,13,13,0,0,1-5.12-3.83,10.94,10.94,0,0,1-2.2-7.22,11.25,11.25,0,0,1,4.24-9.16,18.75,18.75,0,0,1,10.9-3.89v-5.09h4v5.09q6.6.5,10.43,3.82a12.94,12.94,0,0,1,4.26,9.23H358.59a4.79,4.79,0,0,0-3.21-4.39V190a81.12,81.12,0,0,1,8,2.57,13,13,0,0,1,5.05,3.74,10.59,10.59,0,0,1,2.23,7.13A11.91,11.91,0,0,1,368.91,209.83Zm-20.34-23a8.29,8.29,0,0,0,2.8,1.88V180a4.94,4.94,0,0,0-2.77,1.35,4,4,0,0,0-1,2.86A3.76,3.76,0,0,0,348.57,186.82Zm9.8,20a4.19,4.19,0,0,0,1.09-2.95,3.61,3.61,0,0,0-1-2.67,8.62,8.62,0,0,0-3.05-1.79v8.92A5,5,0,0,0,358.37,206.78Z" fill="#f28202"/><rect x="340.72" y="468.28" width="11.13" height="19.79" rx="4.95" fill="#f28202"/><rect x="367.94" y="459" width="11.13" height="19.79" rx="4.95" fill="#f28202"/><rect x="394.53" y="463.95" width="11.13" height="19.79" rx="4.95" fill="#f28202"/><rect x="421.75" y="476.32" width="11.13" height="19.79" rx="4.95" fill="#f28202"/><rect x="447.73" y="484.36" width="11.13" height="19.79" rx="4.95" fill="#f28202"/><rect x="474.94" y="489.31" width="11.13" height="19.79" rx="4.95" fill="#f28202"/><rect x="501.54" y="484.98" width="11.13" height="19.79" rx="4.95" fill="#f28202"/><rect x="528.76" y="474.46" width="11.13" height="19.79" rx="4.95" fill="#f28202"/><rect x="581.95" y="465.8" width="11.13" height="19.79" rx="4.95" fill="#f28202"/><rect x="608.55" y="473.84" width="11.13" height="19.79" rx="4.95" fill="#f28202"/><rect x="555.68" y="487.76" width="11.13" height="19.79" rx="4.95" fill="#f28202"/><path d="M206.55,420.71v9.88a6.61,6.61,0,0,1-4.28,6.2h0a6.61,6.61,0,0,1-7.12-1.61l-5.75-6a2.63,2.63,0,0,0-3.76,0l-11.57,11.75a2.61,2.61,0,0,0-.11,3.55l5.9,6.81a6.13,6.13,0,0,1,.63,7.18h0a6.11,6.11,0,0,1-4.88,3l-9.42.59a3.15,3.15,0,0,0-2.95,3.19l.24,16.44a3.13,3.13,0,0,0,3.08,3.1l9.13.19a5.89,5.89,0,0,1,5.08,3.15h0a5.87,5.87,0,0,1-1,6.81l-5.59,5.76a3.88,3.88,0,0,0,.21,5.62l10.87,9.59a3.88,3.88,0,0,0,5.27-.13l5.33-5.18a6.34,6.34,0,0,1,7.15-1.16h0a6.35,6.35,0,0,1,3.6,5.57l.19,8.44a2.4,2.4,0,0,0,2.37,2.36l17.05.25a2.41,2.41,0,0,0,2.45-2.41v-7.67a6.42,6.42,0,0,1,3.87-5.89h0a6.42,6.42,0,0,1,6.67.95l7.16,6a2.17,2.17,0,0,0,2.93-.13l12.76-12.77a2.18,2.18,0,0,0,.07-3l-6.64-7.26a5.83,5.83,0,0,1-1.17-5.93h0A5.82,5.82,0,0,1,259.8,484H269a2.46,2.46,0,0,0,2.45-2.38l.51-17.58a2.45,2.45,0,0,0-2.45-2.52h-8.66A6.44,6.44,0,0,1,255,457.8h0a6.44,6.44,0,0,1,1.3-7.23l6-6a2.71,2.71,0,0,0,0-3.82l-12.78-13a2.71,2.71,0,0,0-3.89,0l-6.21,6.39a6,6,0,0,1-6.76,1.28h0a6,6,0,0,1-3.49-5.19l-.43-9.74a1.62,1.62,0,0,0-1.64-1.56l-18.93.19A1.63,1.63,0,0,0,206.55,420.71Z" fill="#bcbec0"/><circle cx="217.58" cy="472.31" r="29.85" fill="#d1d3d4" opacity="0.2"/><circle cx="217.58" cy="472.31" r="20.28" fill="#d1d3d4"/></svg>