<svg id="f4b56c6e-2273-4b8b-8e2b-711316e198d9" data-name="Layer 1" xmlns="http://www.w3.org/2000/svg" xmlns:xlink="http://www.w3.org/1999/xlink" width="865.76" height="682.89" viewBox="0 0 865.76 682.89"><defs><clipPath id="aa405b0b-98b9-43c9-aaf0-0d6ccf7eacbf"><polygon id="b7cbf6c3-5164-4d5d-9768-c5e688a5e0a3" data-name="SVGID" points="730.48 272.53 724.47 270.35 718.74 275.89 722.93 258.74 728 254.76 730.58 256.39 742.1 255.96 751.06 256.68 755.33 255.37 759.88 259.92 749.74 279.3 745.49 271.96 736.11 273.13 730.48 272.53" fill="none"/></clipPath><clipPath id="af7b96c0-cae8-46e5-92bf-6561eb7e9637"><rect id="a6984d32-ff81-4325-9cac-db3020ebd146" data-name="SVGID" x="751.88" y="355.89" width="32.09" height="49.95" rx="2.43" transform="translate(267.73 1076.97) rotate(-80.68)" fill="none"/></clipPath></defs><g id="ed5c380c-7f34-4d1a-a075-23f41ba4d9b6" data-name="freepik--background-simple--inject-1"><path d="M833.22,501.23c17.43-131-67.13-305-154.65-376.84C520.45-5.36,389.08,19.73,286.89,66.18S170.21,267.83,99.65,338-11,502.62,96,596.61s193.49,46.23,305.31,40.26,260.31,41,340.59.17C798,608.56,825.58,559.17,833.22,501.23Z" fill="#f29900"/><path d="M833.22,501.23c17.43-131-67.13-305-154.65-376.84C520.45-5.36,389.08,19.73,286.89,66.18S170.21,267.83,99.65,338-11,502.62,96,596.61s193.49,46.23,305.31,40.26,260.31,41,340.59.17C798,608.56,825.58,559.17,833.22,501.23Z" fill="#fff" opacity="0.8" style="isolation:isolate"/></g><g id="ebbdab79-ed8c-434f-a496-ff92320c3e83" data-name="freepik--Floor--inject-1"><path d="M38.36,523.35c10,24.14,27.87,48.72,55.81,73.23,107.05,94,193.48,46.22,305.31,40.25s260.31,41,340.58.17c48.77-24.78,76-65.44,87.35-113.69Z" fill="#f29900"/><path d="M38.36,523.35c10,24.14,27.87,48.72,55.81,73.23,107.05,94,193.48,46.22,305.31,40.25s260.31,41,340.58.17c48.77-24.78,76-65.44,87.35-113.69Z" fill="#fff" opacity="0.5" style="isolation:isolate"/></g><polygon points="227.56 338.8 146.43 334.15 65.82 337.76 153.15 348.62 227.56 338.8" fill="#a7a9ac"/><polygon points="228.34 391.84 147.21 387.19 66.6 390.81 153.93 401.66 228.34 391.84" fill="#a7a9ac"/><polygon points="228.34 446.1 147.21 441.45 66.6 445.07 153.93 455.92 228.34 446.1" fill="#a7a9ac"/><polygon points="65.82 285.05 65.82 332.08 151.6 342.93 153.15 295.9 65.82 285.05" fill="#d1d3d4"/><polygon points="153.15 295.9 227.56 286.09 224.98 333.11 151.6 342.93 153.15 295.9" fill="#bcbec0"/><polygon points="227.56 286.09 146.43 281.44 65.82 285.05 153.15 295.9 227.56 286.09" fill="#a7a9ac"/><ellipse cx="82.61" cy="308.31" rx="5.94" ry="9.3" fill="#bcbec0"/><ellipse cx="99.67" cy="311.92" rx="4.39" ry="5.68" fill="#bcbec0"/><polygon points="113.36 304.69 113.36 319.16 139.71 322.77 140.23 307.79 113.36 304.69" fill="#bcbec0"/><path d="M152.63,311.37v-1c1.21,0,40.38-5.07,60.92-7.74l.12.94C211.24,303.93,154.2,311.37,152.63,311.37Z" fill="#d1d3d4"/><path d="M152.63,323.77v-1c1.21,0,40.38-5.06,60.92-7.74l.12.94C211.24,316.33,154.2,323.77,152.63,323.77Z" fill="#d1d3d4"/><path d="M171.24,330.48v-1c1.19,0,28.19-3.71,42.3-5.68l.13.95C212,325,172.8,330.48,171.24,330.48Z" fill="#d1d3d4"/><polygon points="65.82 337.57 65.82 384.6 151.6 395.45 153.15 348.43 65.82 337.57" fill="#d1d3d4"/><polygon points="153.15 348.43 227.56 338.61 224.98 385.63 151.6 395.45 153.15 348.43" fill="#bcbec0"/><ellipse cx="82.61" cy="360.83" rx="5.94" ry="9.3" fill="#bcbec0"/><ellipse cx="99.67" cy="364.45" rx="4.39" ry="5.68" fill="#bcbec0"/><polygon points="113.36 357.21 113.36 371.68 139.71 375.3 140.23 360.31 113.36 357.21" fill="#bcbec0"/><path d="M152.63,363.89v-.95c1.21,0,40.38-5.07,60.92-7.75l.12.94C211.24,356.45,154.2,363.89,152.63,363.89Z" fill="#d1d3d4"/><path d="M152.63,376.29v-1c1.21,0,40.38-5.07,60.92-7.75l.12,1C211.24,368.85,154.2,376.29,152.63,376.29Z" fill="#d1d3d4"/><path d="M171.24,383v-.95c1.19,0,28.19-3.72,42.3-5.68l.13.94C212,377.55,172.8,383,171.24,383Z" fill="#d1d3d4"/><polygon points="66.6 390.81 66.6 437.83 152.38 448.68 153.93 401.66 66.6 390.81" fill="#d1d3d4"/><polygon points="153.93 401.66 228.34 391.84 225.75 438.87 152.38 448.68 153.93 401.66" fill="#bcbec0"/><ellipse cx="83.39" cy="414.06" rx="5.94" ry="9.3" fill="#bcbec0"/><ellipse cx="100.44" cy="417.68" rx="4.39" ry="5.68" fill="#bcbec0"/><polygon points="114.14 410.44 114.14 424.91 140.49 428.53 141.01 413.55 114.14 410.44" fill="#bcbec0"/><path d="M153.41,417.12v-.95c1.21,0,40.37-5.07,60.91-7.75l.12.95C212,409.68,155,417.12,153.41,417.12Z" fill="#d1d3d4"/><path d="M153.41,429.52v-.95c1.21,0,40.37-5.07,60.91-7.75l.12.95C212,422.08,155,429.52,153.41,429.52Z" fill="#d1d3d4"/><path d="M172,436.24v-.95c1.2,0,28.2-3.72,42.31-5.68l.13.94C212.78,430.78,173.58,436.24,172,436.24Z" fill="#d1d3d4"/><polygon points="66.6 444.95 66.6 491.97 152.38 502.82 153.93 455.8 66.6 444.95" fill="#d1d3d4"/><polygon points="153.93 455.8 228.34 445.98 225.75 493 152.38 502.82 153.93 455.8" fill="#bcbec0"/><ellipse cx="83.39" cy="468.2" rx="5.94" ry="9.3" fill="#bcbec0"/><ellipse cx="100.44" cy="471.82" rx="4.39" ry="5.68" fill="#bcbec0"/><polygon points="114.14 464.58 114.14 479.05 140.49 482.67 141.01 467.68 114.14 464.58" fill="#bcbec0"/><path d="M153.41,471.26v-.95c1.21,0,40.37-5.07,60.91-7.75l.12.95C212,463.82,155,471.26,153.41,471.26Z" fill="#d1d3d4"/><path d="M153.41,483.66v-1c1.21,0,40.37-5.07,60.91-7.75l.12,1C212,476.22,155,483.66,153.41,483.66Z" fill="#d1d3d4"/><path d="M172,490.38v-.95c1.2,0,28.2-3.72,42.31-5.68l.13.94C212.78,484.92,173.58,490.38,172,490.38Z" fill="#d1d3d4"/><polygon points="108.88 220.3 148.28 237.93 149.84 288.75 108.88 220.3" fill="#bcbec0"/><polygon points="188.21 219.78 148.28 237.93 149.84 288.75 188.21 219.78" fill="#d1d3d4"/><polygon points="188.21 219.78 145.17 203.71 108.88 220.3 148.28 237.93 188.21 219.78" fill="#a7a9ac"/><polygon points="110.43 207.86 146.73 226 144.66 140.45 110.43 207.86" fill="#bcbec0"/><polygon points="185.1 205.26 146.73 226 144.66 140.45 185.1 205.26" fill="#d1d3d4"/><rect x="213.8" y="96.59" width="547.03" height="411.27" rx="9.41" fill="#d1d3d4"/><rect x="233.76" y="112.56" width="508.43" height="376.66" rx="9.41" fill="#e6e7e8"/><rect x="442.7" y="136.13" width="262.61" height="151.2" fill="#fff"/><rect x="441.09" y="317.14" width="262.61" height="109.4" fill="#fff"/><rect x="466.58" y="158.24" width="212.21" height="113.18" fill="none" stroke="#d1d3d4" stroke-miterlimit="10"/><path d="M466.69,261.7V235s13.94-12.12,38.18-4.24c0,0,7.27,3.64,17-6.06,0,0,13.94-15.15,38.79-5.45,0,0,13.33,12.72,31.51.6,0,0,22.42-20.6,39.39-13.94,0,0,15.76,5.46,26.06-6.66,0,0,9.7-10.91,21.82-10.31V221.7l-89.09,49.09H466.58Z" fill="#bcbec0"/><line x1="466.67" y1="178.81" x2="679.19" y2="178.81" fill="none" stroke="#d1d3d4" stroke-miterlimit="10"/><line x1="466.67" y1="198.17" x2="659.31" y2="198.17" fill="none" stroke="#d1d3d4" stroke-miterlimit="10"/><line x1="466.67" y1="216.01" x2="597.14" y2="216.01" fill="none" stroke="#d1d3d4" stroke-miterlimit="10"/><line x1="486.55" y1="157.4" x2="486.55" y2="228.24" fill="none" stroke="#d1d3d4" stroke-miterlimit="10"/><line x1="504.89" y1="157.91" x2="504.89" y2="230.79" fill="none" stroke="#d1d3d4" stroke-miterlimit="10"/><line x1="525.79" y1="157.4" x2="525.79" y2="221.11" fill="none" stroke="#d1d3d4" stroke-miterlimit="10"/><line x1="544.13" y1="157.91" x2="544.13" y2="216.01" fill="none" stroke="#d1d3d4" stroke-miterlimit="10"/><line x1="562.48" y1="158.31" x2="562.48" y2="221.11" fill="none" stroke="#d1d3d4" stroke-miterlimit="10"/><line x1="583.38" y1="157.91" x2="583.38" y2="224.16" fill="none" stroke="#d1d3d4" stroke-miterlimit="10"/><line x1="601.72" y1="157.91" x2="601.72" y2="212.44" fill="none" stroke="#d1d3d4" stroke-miterlimit="10"/><line x1="620.07" y1="158.31" x2="620.07" y2="204.8" fill="none" stroke="#d1d3d4" stroke-miterlimit="10"/><line x1="640.96" y1="157.91" x2="640.96" y2="207.35" fill="none" stroke="#d1d3d4" stroke-miterlimit="10"/><line x1="659.82" y1="157.91" x2="659.82" y2="196.64" fill="none" stroke="#d1d3d4" stroke-miterlimit="10"/><polyline points="475.38 405.53 500.43 386.14 520.63 407.15 548.91 379.67 566.68 397.45 597.39 365.94 615.17 384.52 636.99 363.51 656.38 381.29 681.43 357.05" fill="none" stroke="#d1d3d4" stroke-miterlimit="10"/><polyline points="471.34 376.44 498 356.24 519.01 377.25 546.48 348.97 563.45 366.74 593.35 337.65 614.36 356.24 636.18 332.81 653.15 351.39 678.2 327.96" fill="none" stroke="#d1d3d4" stroke-miterlimit="10"/><circle cx="474.62" cy="406.49" r="3.18" fill="#bcbec0"/><circle cx="500.7" cy="386.77" r="3.18" fill="#bcbec0"/><circle cx="521.06" cy="407.13" r="3.18" fill="#bcbec0"/><circle cx="549.05" cy="380.41" r="3.18" fill="#bcbec0"/><circle cx="566.86" cy="396.95" r="3.18" fill="#bcbec0"/><circle cx="597.4" cy="366.42" r="3.18" fill="#bcbec0"/><circle cx="614.58" cy="384.23" r="3.18" fill="#bcbec0"/><circle cx="636.84" cy="363.23" r="3.18" fill="#bcbec0"/><circle cx="655.93" cy="381.68" r="3.18" fill="#bcbec0"/><circle cx="680.1" cy="358.14" r="3.18" fill="#bcbec0"/><path d="M466.69,262.21s8.48-9.8,26.67-8c0,0,19.39,4.9,32.72-4.29,0,0,13.94-13.48,36.36-4.29,0,0,17.58,11,32.73-1.84,0,0,13.33-17.76,35.15-12.25,0,0,10.91,4.9,27.27-5.51,0,0,8.49-13.48,21.21-11.64v56.36H466.58S468.2,260.68,466.69,262.21Z" fill="#d1d3d4"/><circle cx="472.07" cy="375.96" r="3.18" fill="#bcbec0"/><circle cx="498.16" cy="356.87" r="3.18" fill="#bcbec0"/><circle cx="519.15" cy="376.59" r="3.18" fill="#bcbec0"/><circle cx="546.51" cy="349.24" r="3.18" fill="#bcbec0"/><circle cx="563.68" cy="365.78" r="3.18" fill="#bcbec0"/><circle cx="593.58" cy="338.42" r="3.18" fill="#bcbec0"/><circle cx="613.94" cy="355.6" r="3.18" fill="#bcbec0"/><circle cx="636.21" cy="333.33" r="3.18" fill="#bcbec0"/><circle cx="653.38" cy="351.78" r="3.18" fill="#bcbec0"/><circle cx="677.56" cy="328.88" r="3.18" fill="#bcbec0"/><circle cx="327.49" cy="383.75" r="44.76" fill="#f29900"/><circle cx="327.49" cy="383.74" r="38.02" opacity="0.2" style="isolation:isolate"/><path d="M354.87,357.36a38,38,0,0,0-53.76,53.79,38,38,0,0,1,53.14-54.39l.62.62Z" opacity="0.2" style="isolation:isolate"/><path d="M327.52,339a44.78,44.78,0,1,0,44.76,44.79v0A44.78,44.78,0,0,0,327.52,339Zm0,87.17a42.33,42.33,0,1,1,42.31-42.34h0a42.33,42.33,0,0,1-42.31,42.26Z" opacity="0.2" style="isolation:isolate"/><path d="M364.1,358a50.08,50.08,0,0,1,1.14,6.64A42.33,42.33,0,0,1,307.37,421a51.94,51.94,0,0,1-6.55-1.29A44.77,44.77,0,0,0,364.1,358Z" opacity="0.2" style="isolation:isolate"/><path d="M329.77,401v5.38h-3.94V401c-4.7-.29-9.27-1.82-11.77-4l2.15-4.85a18.83,18.83,0,0,0,9.62,3.66v-9.58c-5.33-1.3-11.07-3-11.07-9.68,0-4.9,3.56-9.18,11.07-9.9v-5.43h3.94v5.34a20.54,20.54,0,0,1,9.76,2.93l-2,4.86a19.88,19.88,0,0,0-7.78-2.61v9.69c5.33,1.29,11.16,3,11.16,9.68C340.93,395.93,337.31,400.19,329.77,401Zm-3.94-20.56v-8.57c-3.42.54-4.86,2.27-4.86,4.39s2.08,3.36,4.86,4.18Zm8.94,11.07c0-2.36-2.12-3.46-5-4.28v8.51c3.5-.51,5-2.14,5-4.21Z" fill="#f29900"/><g opacity="0.2"><path d="M329.77,401v5.38h-3.94V401c-4.7-.29-9.27-1.82-11.77-4l2.15-4.85a18.83,18.83,0,0,0,9.62,3.66v-9.58c-5.33-1.3-11.07-3-11.07-9.68,0-4.9,3.56-9.18,11.07-9.9v-5.43h3.94v5.34a20.54,20.54,0,0,1,9.76,2.93l-2,4.86a19.88,19.88,0,0,0-7.78-2.61v9.69c5.33,1.29,11.16,3,11.16,9.68C340.93,395.93,337.31,400.19,329.77,401Zm-3.94-20.56v-8.57c-3.42.54-4.86,2.27-4.86,4.39s2.08,3.36,4.86,4.18Zm8.94,11.07c0-2.36-2.12-3.46-5-4.28v8.51c3.5-.51,5-2.14,5-4.21Z" fill="#fff"/></g><circle cx="329.78" cy="197.3" r="62.94" fill="#f29900"/><circle cx="329.78" cy="197.29" r="53.46" opacity="0.2" style="isolation:isolate"/><path d="M368.28,160.2a53.48,53.48,0,0,0-75.6,75.62,53.46,53.46,0,1,1,74.73-76.47q.45.42.87.87Z" opacity="0.2" style="isolation:isolate"/><path d="M329.82,134.36a63,63,0,1,0,62.94,63v0A63,63,0,0,0,329.82,134.36Zm0,122.57a59.52,59.52,0,1,1,59.5-59.53v0a59.52,59.52,0,0,1-59.5,59.41Z" opacity="0.2" style="isolation:isolate"/><path d="M381.26,161.05a70.66,70.66,0,0,1,1.6,9.34,59.52,59.52,0,0,1-81.37,79.28,72.19,72.19,0,0,1-9.22-1.8,63,63,0,0,0,89-86.82Z" opacity="0.2" style="isolation:isolate"/><path d="M343.26,193.05s4-5.71.69-11.25c0,0-2.77-5.36-7.79-6.4v-8.48h-8v6.92h-3.47v-6.41h-8V174H313v8h4v26.84h-3.46v7.61h3.64v5.37h7.44v-5.54h3.29v5.36H336v-5.36s13.32.34,13.5-12.64A12.36,12.36,0,0,0,343.26,193.05Zm-18.53-11.42h7.55a5,5,0,0,1,0,10h-7.54Zm17,22.26c.06,2.38-3,4.33-6.78,4.33h-10.2v-8.53h10.2c3.7,0,6.72,1.87,6.78,4.2Z" fill="#f29900"/><path d="M343.26,193.05s4-5.71.69-11.25c0,0-2.77-5.36-7.79-6.4v-8.48h-8v6.92h-3.47v-6.41h-8V174H313v8h4v26.84h-3.46v7.61h3.64v5.37h7.44v-5.54h3.29v5.36H336v-5.36s13.32.34,13.5-12.64A12.36,12.36,0,0,0,343.26,193.05Zm-18.53-11.42h7.55a5,5,0,0,1,0,10h-7.54Zm17,22.26c.06,2.38-3,4.33-6.78,4.33h-10.2v-8.53h10.2c3.7,0,6.72,1.87,6.78,4.2Z" fill="#fff" opacity="0.2"/><polygon points="322.17 293.89 322.17 273.12 338.73 273.12 338.73 293.89 348.57 293.89 330.45 324.88 313.88 293.89 322.17 293.89" fill="#bcbec0"/><polygon points="702.92 550.73 702.15 573.37 713.87 573.93 718.13 550.73 702.92 550.73" fill="#f9b499"/><path d="M680,580.31c4-1.37,10.78-3.71,13.34-5.31,2.06-1.29,4.93-5.49,7-6.67a3.57,3.57,0,0,1,2.83,0,2.65,2.65,0,0,1,.65,1.37A1.16,1.16,0,0,0,706,570a4.87,4.87,0,0,1,1.37-1.65c1.81-1,6.71-1.3,8.32,0,2.66,2.18,3.62,9.7,4.11,13.09.13.74,0,4.85,0,4.85H677.05v-1.88A4.29,4.29,0,0,1,680,580.31Z" fill="#f29900"/><path d="M719.82,586.28H677.05V584.4a3.85,3.85,0,0,1,.23-1.38h42.6C719.88,584.47,719.82,586.28,719.82,586.28Z" fill="#232325"/><path d="M710.31,375.24l-9,184.11,16.46,2.74s10.37-53.28,11.63-70.73c.31-4.12,0-16.54,0-16.54l11.65-57.33s7.67-7.08,8.56-40.78Z" fill="#232325"/><path d="M734.68,446.5c.63-2.67,1.37-5.29,2.26-7.89a11.33,11.33,0,0,1,.47-1.06A102.86,102.86,0,0,1,739.29,426a6.4,6.4,0,0,1,2.18-3.65,5.3,5.3,0,0,1,3.47-3,70.87,70.87,0,0,0-2.3-10.47c-1-3.59-2.75-7-3.26-10.75-.13-1-.68-2-.5-2.07a33.64,33.64,0,0,1-3.46-1.57l-.21-.16A519.14,519.14,0,0,0,734.68,446.5Z" opacity="0.7" style="isolation:isolate"/><polygon points="699.16 562.85 719.07 564.48 720.55 558.03 699.16 556.36 699.16 562.85" fill="#f29900"/><polygon points="756.64 547.95 760.88 574.41 771.72 573.56 771.36 546.46 756.64 547.95" fill="#f9b499"/><path d="M738.49,580.31c4-1.37,10.8-3.71,13.35-5.31,2.06-1.29,4.94-5.49,7-6.67a3.59,3.59,0,0,1,2.84,0,2.1,2.1,0,0,1,.51.92,1.36,1.36,0,0,0,1.69,1,1.34,1.34,0,0,0,.83-.66,4.23,4.23,0,0,1,1.1-1.21c1.81-1,6.71-1.3,8.31,0,2.67,2.18,3.63,9.7,4.12,13.09.11.74,0,4.86,0,4.86H735.56V584.4A4.29,4.29,0,0,1,738.49,580.31Z" fill="#f29900"/><path d="M778.33,586.28H735.56V584.4a4.07,4.07,0,0,1,.22-1.38h42.59C778.37,584.47,778.33,586.28,778.33,586.28Z" fill="#232325"/><path d="M733.22,380.8s4.12,23.83,7.91,43.81c2.58,13.56,2.74,53.6,2.74,53.6L757,560.9l16.2-2.18s.2-50.9-1.63-67.23c-.41-3.63-1.08-14.43-1.08-14.43s.62-43.19,4-57.62c2.39-10.29,7.13-21.1,1.37-42.18Z" fill="#232325"/><polygon points="754.3 557.18 755.23 563.24 775.31 561.09 775.18 554.56 754.3 557.18" fill="#f29900"/><path d="M656.77,270.57l-4.43-7.45s-1.07-12.17-3.54-14.55-8-9.35-8.74-8c-1.24,2.19,3.33,6.1,3.33,6.1l.84,4.53s-7.39-5.32-9.48-5.32c0,0-5.9-7-8-7s.85,4.83.85,4.83-2-1.52-2.38-.57,2.57,4.18,2.57,4.18-1.14,1.23.57,3.88a4.84,4.84,0,0,0,1.38,4.84c2.27,1.82,14.51,8.74,14.51,8.74l4.12,9.69Z" fill="#f9b499"/><path d="M629.43,247.53s1.62.66.94,3a5.78,5.78,0,0,1,1,3.13c.16,2.09,10.72,1.06,13.58,5.49" fill="none" stroke="#f7a48b" stroke-miterlimit="10"/><line x1="629.43" y1="244.97" x2="633.74" y2="249.52" fill="none" stroke="#f7a48b" stroke-miterlimit="10"/><path d="M702.51,268.69l-28.28,22-19.37-26.4L645,269.26s15.5,42.83,27.23,42.83c12.47,0,36.18-20,36.18-20S709.9,288.24,702.51,268.69Z" fill="#f29900"/><path d="M702.51,268.69l-28.28,22-19.37-26.4L645,269.26s15.5,42.83,27.23,42.83c12.47,0,36.18-20,36.18-20S709.9,288.24,702.51,268.69Z" opacity="0.2" style="isolation:isolate"/><g opacity="0.2" style="isolation:isolate"><path d="M676.77,297.51a.28.28,0,0,1-.28-.23,19.77,19.77,0,0,0-1.45-4.34.29.29,0,0,1,.14-.39.3.3,0,0,1,.39.14,20.24,20.24,0,0,1,1.49,4.47.3.3,0,0,1-.23.35Z"/></g><path d="M702.51,268.69l6,79.72v33.11s34.7,4.12,68.92-.87l-1.18-34.1,3.47-76s-15.88-11.49-40.27-11.49S702.51,268.69,702.51,268.69Z" fill="#f29900"/><path d="M777.45,380.65l-1.09-30.56c-.59,14.72-16.84,9.2-20.51,8.51-3.94-.74-8.47,12.24-8.47,12.24s-15.09,2.59-26.9,1.67-12-11.7-12-11.7v20.71S743.23,385.69,777.45,380.65Z" opacity="0.2" style="isolation:isolate"/><polygon points="730.48 272.53 724.47 270.35 718.74 275.89 722.93 258.74 728 254.76 730.58 256.39 742.1 255.96 751.06 256.68 755.33 255.37 759.88 259.92 749.74 279.3 745.49 271.96 736.11 273.13 730.48 272.53" fill="#f29900"/><g clip-path="url(#aa405b0b-98b9-43c9-aaf0-0d6ccf7eacbf)"><polygon points="730.48 272.53 724.47 270.35 718.74 275.89 722.93 258.74 728 254.76 730.58 256.39 742.1 255.96 751.06 256.68 755.33 255.37 759.88 259.92 749.74 279.3 745.49 271.96 736.11 273.13 730.48 272.53" fill="#fff" opacity="0.5" style="isolation:isolate"/></g><path d="M750.44,259.86l-1.37-21-13.25,2.35-2.75,9.85-2.74,8.53-1.3.14,3.6,19.59,19.13-19.21Z" fill="#f9b499"/><path d="M741.52,387.3l-.7,4.24a2.75,2.75,0,0,0,2.21,3.08l44,7.22a2.75,2.75,0,0,0,3.09-2.21l.68-4.24Z" fill="#f29900"/><rect x="751.88" y="355.89" width="32.09" height="49.95" rx="2.43" transform="translate(267.73 1076.97) rotate(-80.68)" fill="#f29900"/><g clip-path="url(#af7b96c0-cae8-46e5-92bf-6561eb7e9637)"><rect x="751.88" y="355.89" width="32.09" height="49.95" rx="2.43" transform="translate(267.73 1076.97) rotate(-80.68)" fill="#fff" opacity="0.5" style="isolation:isolate"/></g><path d="M775.6,373.69l-2.43,8.23-8.23,5.89a97.49,97.49,0,0,1-4.11,10.57,1.28,1.28,0,0,0,.51,1.75,1.21,1.21,0,0,0,.56.16c1.13,0,2.47-.53,3.19-2.74,0,0,.32,4.33,3,1.68,0,0,1.64,4.2,4.19.9,0,0,5.91.87,6.86-3.39S781.47,385,781.47,385l3.76-8.82Z" fill="#f9b499"/><line x1="765.04" y1="395.86" x2="765.97" y2="389.51" fill="none" stroke="#f7a48b" stroke-miterlimit="10"/><path d="M766.51,396.27s.64,2.1,2.09,1.76,3.53,1.27,8.06-.63" fill="none" stroke="#f7a48b" stroke-miterlimit="10"/><path d="M779.74,270.57s20.58,57.18,20.2,65.53-15,44.7-15,44.7l-11.31-3.6,7.55-42.62L774.39,305S772.86,283.24,779.74,270.57Z" fill="#f29900"/><path d="M779.74,270.57s20.58,57.18,20.2,65.53-15,44.7-15,44.7l-11.31-3.6,7.55-42.62L774.39,305S772.86,283.24,779.74,270.57Z" opacity="0.2" style="isolation:isolate"/><g opacity="0.2" style="isolation:isolate"><path d="M783.7,333.92a.32.32,0,0,1-.24-.11.3.3,0,0,1,.06-.41,6.65,6.65,0,0,1,5.65-1.19.29.29,0,0,1-.14.57,6.08,6.08,0,0,0-5.16,1.08A.27.27,0,0,1,783.7,333.92Z"/></g><path d="M770.32,378.11a5.71,5.71,0,0,1-.91-1.81,3.13,3.13,0,1,0,3.05,3.63h0A4.68,4.68,0,0,1,770.32,378.11Z" fill="#fff"/><polygon points="730.33 259.63 732.42 252.88 744.2 244.99 730.33 259.63" fill="#f7a48b"/><path d="M764,227.81c0,4.19-3.54,2.85-3.54,2.85s2.23,4,.38,6.05a2.25,2.25,0,0,1-3.13.47,2.33,2.33,0,0,1-.47-.47s2.32,5-.61,6.43c-2.1,1-3.34-1.49-3.34-1.49s-1.77,4.3-3.91,1.67a34.5,34.5,0,0,1-2.06-3.23c-3-5.16-8-14.54-9.9-18.19a7.12,7.12,0,0,0-2.2-2.49l-8.52-6a14.84,14.84,0,0,1-1.49-1.36c-1.64-1.69-3.76-4.66-1.71-7.17,1.62-1.95,3.7.61,3.7.61s-1.11-6,3.35-6.85c4.11-.77,4,3.94,4,3.94s2.12-4,5.84-3.13c3,.71,1.82,4.91,1.82,4.91s4-4.91,8-2.75c3.53,1.85.62,6.3.62,6.3s4.2-1.48,6.55.88,0,5.49,0,5.49,4.62,0,4.82,3.45-3.58,4.12-3.58,4.12S764,223.61,764,227.81Z" fill="#232325"/><path d="M747.31,240.09c-4.72,11.25-13.87,18.16-21.73,15.83-8.77-2.6-12.6-15.75-8.56-29.37a35.07,35.07,0,0,1,8.18-14.47,14.84,14.84,0,0,0,1.49,1.36l8.22,5.76a8.61,8.61,0,0,1,2.67,3C739.61,226.08,744.39,235.08,747.31,240.09Z" fill="#f9b499"/><ellipse cx="749.2" cy="236.86" rx="6.7" ry="4.01" transform="translate(262.79 853.96) rotate(-69.3)" fill="#f9b499"/><polygon points="451 256.04 453.5 268.35 425.76 269.51 430.58 235.41 449.26 237.58 451 256.04" fill="#f9b499"/><path d="M451.79,211.59s6.44,3.6,10.15-.9C461.94,210.69,462.35,220.29,451.79,211.59Z" fill="#232325"/><polygon points="414.87 537.9 410.86 572.37 422.78 574.21 429.36 540.13 414.87 537.9" fill="#f9b499"/><path d="M409.26,385.56s.48,20,7.53,34l1.6,53L410.26,558l18.09,1.73,16.47-89.34,5.48-80.94Z" fill="#232325"/><path d="M447.75,428.38l-1.51-9.51L439.38,389l-1.26-.64-28.81-2.75a67.55,67.55,0,0,0,.65,8.12l14.22,8.07a47.64,47.64,0,0,0,3.39,14.75,2.59,2.59,0,0,1-1.4,3.39,2.62,2.62,0,0,1-1.21.19c-1.46-.11-2.74,0-2.74,1,0,2.22,10.73,9.4,10.73,9.4s10.82,35,10.44,47.9l1.47-7.95Z" opacity="0.2" style="isolation:isolate"/><polygon points="451.25 540.16 452.55 574.84 464.61 574.84 465.9 540.16 451.25 540.16" fill="#f9b499"/><path d="M483.82,579.73a76.11,76.11,0,0,1-11.58-4.61c-1.78-1.12-4.28-4.75-6.12-5.78a3,3,0,0,0-2.44,0c-.88.71-.92,4.43-.92,4.43s-1.55-3.79-2.68-4.43c-1.56-.88-5.81-1.14-7.2,0-2.3,1.88-3.14,8.41-3.59,11.35-.11.64,0,4.21,0,4.21h37v-1.64A3.73,3.73,0,0,0,483.82,579.73Z" fill="#f29900"/><path d="M476.48,387.21l-3,80.13-5,91.49H449.71s-3.95-70.23-3-90.54l-9.89-47s-10.39-13.86-7.92-30.66Z" fill="#232325"/><polygon points="448.04 552.03 448.66 563.03 469.3 563.03 470.91 552.03 448.04 552.03" fill="#f29900"/><polygon points="408.75 551.08 408.32 562.08 428.88 564.04 431.52 553.25 408.75 551.08" fill="#f29900"/><polygon points="507.73 334.46 479.21 316.32 509.27 286.27 537.8 304.4 507.73 334.46" fill="#f29900"/><polygon points="509.36 328.26 486.43 313.68 510.6 289.5 533.53 304.09 509.36 328.26" fill="#fff"/><path d="M511.09,303.72,505.27,300l4.57-4.55,5.82,3.69Zm-4.58-3.84,4.47,2.85,3.44-3.44L510,296.45Z" fill="#232325"/><path d="M504.88,310l-5.82-3.71,4.56-4.57,5.83,3.71Zm-4.59-3.85,4.48,2.85,3.44-3.44-4.49-2.85Z" fill="#232325"/><path d="M498.44,316.38l-5.83-3.71,4.57-4.57,5.82,3.71Zm-4.59-3.84,4.48,2.85,3.43-3.44-4.47-2.85Z" fill="#232325"/><path d="M520.85,290.94l-3.79,3.8a1.69,1.69,0,0,0,0,2.39,1.09,1.09,0,0,0,.29.23l5.48,3.53a3.17,3.17,0,0,0,3.93-.42l3.5-3.52Z" fill="#232325"/><path d="M419.35,267.53l5-10.88s28.68-3.21,36.34,20.77Z" fill="#f29900"/><path d="M419.35,267.53l5-10.88s28.68-3.21,36.34,20.77Z" fill="#fff" opacity="0.2" style="isolation:isolate"/><path d="M403.07,276.8S396,331,397.87,350.25c1.48,15.2,11.5,28.07,11.5,28.07l14.84-5.82-7.55-22.25s2.35-40.06,4.57-49.39Z" fill="#f29900"/><path d="M403.07,276.8S396,331,397.87,350.25c1.48,15.2,11.5,28.07,11.5,28.07l14.84-5.82-7.55-22.25s2.35-40.06,4.57-49.39Z" opacity="0.2" style="isolation:isolate"/><polygon points="405.07 375.66 409.26 380.67 426.4 373.98 424.18 367.3 405.07 375.66" fill="#f29900"/><path d="M403.07,276.8s-2.24,31.16,4.12,53.05,0,57.85,0,57.85,29.23,18.92,74.08,4.45c0,0-5.56-106.46-13-112.39S419,251.21,403.07,276.8Z" fill="#f29900"/><path d="M481.27,392.15s-1.91-36.49-5-67.94c-6.49-15.75-17.09-36.72-17.66-7.27-.82,42.6,25.4,40.09,4.63,47.51a33.77,33.77,0,0,1-28.65-2.22,1.7,1.7,0,0,0-2.11,2.56c5.21,6.63,13.13,10.76,19.21,13.13a2.66,2.66,0,0,1-.55,5.12c-19.57,2.89-34.9-7.51-41.94-13.56-.82,10.49-2.18,18.22-2.18,18.22S436.42,406.62,481.27,392.15Z" opacity="0.3" style="isolation:isolate"/><path d="M468.32,279.78a17.45,17.45,0,0,1,10,13.52c1.48,10.21,11,41.56,11,41.56l3.15-2.05A13.12,13.12,0,0,1,500,346.88S492.32,362,483.9,359.13c-8.66-2.94-13.5-10-17.83-21.6-2.29-6.17-8.91-24.77-8.91-24.77S442.76,280.69,468.32,279.78Z" fill="#f29900"/><path d="M468.32,279.78a17.45,17.45,0,0,1,10,13.52c1.48,10.21,11,41.56,11,41.56l3.15-2.05A13.12,13.12,0,0,1,500,346.88S492.32,362,483.9,359.13c-8.66-2.94-13.5-10-17.83-21.6-2.29-6.17-8.91-24.77-8.91-24.77S442.76,280.69,468.32,279.78Z" opacity="0.2" style="isolation:isolate"/><path d="M494.53,332l9.89-7.05a12.51,12.51,0,0,1,8.78-9.28s4.57-7.54,7.17-6.66-3.09,4-3.59,7.9l2.1,2.81s6.86-1.21,8.54-3.43c0,0-.37,4.71-3.09,5.49,0,0,0,3.58-1.85,3.46L508.87,329,501,343.8Z" fill="#f9b499"/><path d="M490.27,332.2s10.31,7.79,9.33,17.19l3.71-7.12s-.12-6-8.65-12.35Z" fill="#f29900"/><path d="M449.29,584.9h37v-1.64a4,4,0,0,0-.19-1.18H449.23C449.23,583.33,449.29,584.9,449.29,584.9Z" fill="#232325"/><path d="M441.48,579.73a76.53,76.53,0,0,1-11.58-4.61c-1.78-1.12-4.28-4.75-6.1-5.78a3.09,3.09,0,0,0-2.46,0c-.87.71-.92,4.43-.92,4.43s-1.53-3.79-2.67-4.43c-1.57-.88-5.82-1.14-7.2,0-2.31,1.88-3.15,8.41-3.6,11.35-.11.64,0,4.21,0,4.21h37v-1.64A3.71,3.71,0,0,0,441.48,579.73Z" fill="#f29900"/><path d="M406.92,584.9H444v-1.64a3.7,3.7,0,0,0-.2-1.18h-36.9C406.87,583.33,406.92,584.9,406.92,584.9Z" fill="#232325"/><polygon points="507.84 295.47 508.83 300.38 517.58 300.38 510.46 298.72 510.8 295.38 507.84 295.47" fill="#f29900"/><path d="M450.56,252.42,451,256l.76,3.22a14.82,14.82,0,0,1-7.25-6.73A14.6,14.6,0,0,1,443,245l10.42,2.58Z" fill="#f7a48b"/><path d="M454.52,212.72a7.16,7.16,0,0,1-2.24,0l.64,12.91-8.23,14.46-.89,2.23-1.26,1.51a10.54,10.54,0,0,1-5.6,1.94,14.39,14.39,0,0,1-10.26-3.5c-12.12-10.29-8.33-16.34-8.33-16.34-7.47-12.46,13.65-20.34,20.19-21.16s19.11-5.3,19.79,2C458.75,211.21,456.41,212.44,454.52,212.72Z" fill="#232325"/><path d="M454.88,253.2c-4.68.59-9.3-3.13-12.24-9.15l2.05-4,7.09-12.46a7.9,7.9,0,0,0,1-4.3l-.53-10.61a7.16,7.16,0,0,0,2.24,0c5,2.48,9.19,9.51,10.28,18.2C466.25,242.35,461.81,252.32,454.88,253.2Z" fill="#f9b499"/><ellipse cx="443.37" cy="237.22" rx="3.35" ry="4.93" transform="matrix(0.97, -0.26, 0.26, 0.97, -46.14, 122.2)" fill="#f9b499"/><circle cx="283.13" cy="510.3" r="48.28" transform="translate(-277.91 349.67) rotate(-45)" fill="#f29900"/><circle cx="280.34" cy="510.3" r="48.28" fill="#232325"/><circle cx="280.34" cy="510.29" r="41.29" transform="translate(-280.19 667.77) rotate(-76.91)" fill="#f29900"/><circle cx="280.34" cy="510.29" r="41.29" transform="translate(-280.19 667.77) rotate(-76.91)" fill="#fff" opacity="0.2"/><path d="M276.89,483v-4h6.87v4c6,1.22,9,5.81,9,13.07v1.68h-8v-2.22c0-3.81-1.53-5.27-4.2-5.27s-4.21,1.45-4.21,5.27c0,11,16.43,11.54,16.43,26.83,0,7.26-3.13,11.92-9.1,13.15v3.89h-6.87V535.5c-6-1.23-9.09-5.89-9.09-13.15v-3.67h7.94v4.24c0,3.81,1.69,5.2,4.36,5.2s4.36-1.38,4.36-5.2c0-11-16.44-11.54-16.44-26.82C268,488.87,271,484.29,276.89,483Z" fill="#232325"/><path d="M274.86,483v-4h6.88v4c6,1.22,9,5.81,9,13.07v1.68H282.8v-2.22c0-3.81-1.52-5.27-4.2-5.27s-4.2,1.45-4.2,5.27c0,11,16.43,11.54,16.43,26.83,0,7.26-3.13,11.92-9.09,13.15v3.89h-6.88V535.5c-6.05-1.23-9.09-5.89-9.09-13.15v-3.67h8v4.24c0,3.81,1.68,5.2,4.36,5.2s4.35-1.38,4.35-5.2c0-11-16.43-11.54-16.43-26.82C266,488.87,269,484.29,274.86,483Z" fill="#f29900"/><rect x="183.39" y="414.9" width="81.54" height="7.25" fill="#f29900"/><rect x="260.14" y="415.06" width="0.95" height="6.76" fill="#232325"/><rect x="262.51" y="415.06" width="0.95" height="6.76" fill="#232325"/><rect x="255.44" y="415.06" width="0.95" height="6.76" fill="#232325"/><rect x="250.72" y="415.06" width="0.95" height="6.76" fill="#232325"/><rect x="246.01" y="415.06" width="0.95" height="6.76" fill="#232325"/><rect x="241.3" y="415.06" width="0.95" height="6.76" fill="#232325"/><rect x="234.24" y="415.06" width="0.95" height="6.76" fill="#232325"/><rect x="222.45" y="415.06" width="0.95" height="6.76" fill="#232325"/><rect x="183.39" y="429.3" width="81.54" height="7.25" fill="#f29900"/><rect x="260.14" y="429.46" width="0.95" height="6.76" fill="#232325"/><rect x="262.51" y="429.46" width="0.95" height="6.76" fill="#232325"/><rect x="255.44" y="429.46" width="0.95" height="6.76" fill="#232325"/><rect x="250.72" y="429.46" width="0.95" height="6.76" fill="#232325"/><rect x="246.01" y="429.46" width="0.95" height="6.76" fill="#232325"/><rect x="241.3" y="429.46" width="0.95" height="6.76" fill="#232325"/><rect x="234.24" y="429.46" width="0.95" height="6.76" fill="#232325"/><rect x="222.45" y="429.46" width="0.95" height="6.76" fill="#232325"/><rect x="185.36" y="422.17" width="81.54" height="7.25" fill="#f29900"/><rect x="262.11" y="422.33" width="0.95" height="6.76" fill="#232325"/><rect x="264.47" y="422.33" width="0.95" height="6.76" fill="#232325"/><rect x="257.4" y="422.33" width="0.95" height="6.76" fill="#232325"/><rect x="252.69" y="422.33" width="0.95" height="6.76" fill="#232325"/><rect x="247.98" y="422.33" width="0.95" height="6.76" fill="#232325"/><rect x="243.26" y="422.33" width="0.95" height="6.76" fill="#232325"/><rect x="236.2" y="422.33" width="0.95" height="6.76" fill="#232325"/><rect x="224.42" y="422.33" width="0.95" height="6.76" fill="#232325"/><rect x="185.36" y="422.17" width="81.54" height="7.25" fill="#fff" opacity="0.2"/><rect x="185.36" y="436.55" width="81.54" height="7.25" fill="#f29900"/><rect x="262.11" y="436.71" width="0.95" height="6.76" fill="#232325"/><rect x="264.47" y="436.71" width="0.95" height="6.76" fill="#232325"/><rect x="257.4" y="436.71" width="0.95" height="6.76" fill="#232325"/><rect x="252.69" y="436.71" width="0.95" height="6.76" fill="#232325"/><rect x="247.98" y="436.71" width="0.95" height="6.76" fill="#232325"/><rect x="243.26" y="436.71" width="0.95" height="6.76" fill="#232325"/><rect x="236.2" y="436.71" width="0.95" height="6.76" fill="#232325"/><rect x="224.42" y="436.71" width="0.95" height="6.76" fill="#232325"/><rect x="185.36" y="436.55" width="81.54" height="7.25" fill="#fff" opacity="0.2"/><rect x="183.61" y="443.8" width="81.54" height="7.25" fill="#f29900"/><rect x="260.37" y="443.96" width="0.95" height="6.76" fill="#232325"/><rect x="262.73" y="443.96" width="0.95" height="6.76" fill="#232325"/><rect x="255.66" y="443.96" width="0.95" height="6.76" fill="#232325"/><rect x="250.94" y="443.96" width="0.95" height="6.76" fill="#232325"/><rect x="246.23" y="443.96" width="0.95" height="6.76" fill="#232325"/><rect x="241.52" y="443.96" width="0.95" height="6.76" fill="#232325"/><rect x="234.46" y="443.96" width="0.95" height="6.76" fill="#232325"/><rect x="222.67" y="443.96" width="0.95" height="6.76" fill="#232325"/><rect x="183.61" y="458.2" width="81.54" height="7.25" fill="#f29900"/><rect x="260.37" y="458.37" width="0.95" height="6.76" fill="#232325"/><rect x="262.73" y="458.37" width="0.95" height="6.76" fill="#232325"/><rect x="255.66" y="458.37" width="0.95" height="6.76" fill="#232325"/><rect x="250.94" y="458.37" width="0.95" height="6.76" fill="#232325"/><rect x="246.23" y="458.37" width="0.95" height="6.76" fill="#232325"/><rect x="241.52" y="458.37" width="0.95" height="6.76" fill="#232325"/><rect x="234.46" y="458.37" width="0.95" height="6.76" fill="#232325"/><rect x="222.67" y="458.37" width="0.95" height="6.76" fill="#232325"/><rect x="185.58" y="451.08" width="81.54" height="7.25" fill="#f29900"/><rect x="262.33" y="451.24" width="0.95" height="6.76" fill="#232325"/><rect x="264.69" y="451.24" width="0.95" height="6.76" fill="#232325"/><rect x="257.62" y="451.24" width="0.95" height="6.76" fill="#232325"/><rect x="252.91" y="451.24" width="0.95" height="6.76" fill="#232325"/><rect x="248.2" y="451.24" width="0.95" height="6.76" fill="#232325"/><rect x="243.48" y="451.24" width="0.95" height="6.76" fill="#232325"/><rect x="236.42" y="451.24" width="0.95" height="6.76" fill="#232325"/><rect x="224.64" y="451.24" width="0.95" height="6.76" fill="#232325"/><rect x="185.58" y="451.08" width="81.54" height="7.25" fill="#fff" opacity="0.2"/><rect x="185.58" y="465.46" width="81.54" height="7.25" fill="#f29900"/><rect x="262.33" y="465.62" width="0.95" height="6.76" fill="#232325"/><rect x="264.69" y="465.62" width="0.95" height="6.76" fill="#232325"/><rect x="257.62" y="465.62" width="0.95" height="6.76" fill="#232325"/><rect x="252.91" y="465.62" width="0.95" height="6.76" fill="#232325"/><rect x="248.2" y="465.62" width="0.95" height="6.76" fill="#232325"/><rect x="243.48" y="465.62" width="0.95" height="6.76" fill="#232325"/><rect x="236.42" y="465.62" width="0.95" height="6.76" fill="#232325"/><rect x="224.64" y="465.62" width="0.95" height="6.76" fill="#232325"/><rect x="185.58" y="465.46" width="81.54" height="7.25" fill="#fff" opacity="0.2"/><rect x="182.85" y="472.71" width="81.54" height="7.25" fill="#f29900"/><rect x="259.6" y="472.87" width="0.95" height="6.76" fill="#232325"/><rect x="261.97" y="472.87" width="0.95" height="6.76" fill="#232325"/><rect x="254.9" y="472.87" width="0.95" height="6.76" fill="#232325"/><rect x="250.18" y="472.87" width="0.95" height="6.76" fill="#232325"/><rect x="245.47" y="472.87" width="0.95" height="6.76" fill="#232325"/><rect x="240.76" y="472.87" width="0.95" height="6.76" fill="#232325"/><rect x="233.7" y="472.87" width="0.95" height="6.76" fill="#232325"/><rect x="221.91" y="472.87" width="0.95" height="6.76" fill="#232325"/><rect x="182.85" y="487.11" width="81.54" height="7.25" fill="#f29900"/><rect x="259.6" y="487.27" width="0.95" height="6.76" fill="#232325"/><rect x="261.97" y="487.27" width="0.95" height="6.76" fill="#232325"/><rect x="254.9" y="487.27" width="0.95" height="6.76" fill="#232325"/><rect x="250.18" y="487.27" width="0.95" height="6.76" fill="#232325"/><rect x="245.47" y="487.27" width="0.95" height="6.76" fill="#232325"/><rect x="240.76" y="487.27" width="0.95" height="6.76" fill="#232325"/><rect x="233.7" y="487.27" width="0.95" height="6.76" fill="#232325"/><rect x="221.91" y="487.27" width="0.95" height="6.76" fill="#232325"/><rect x="184.82" y="479.98" width="81.54" height="7.25" fill="#f29900"/><rect x="261.57" y="480.14" width="0.95" height="6.76" fill="#232325"/><rect x="263.93" y="480.14" width="0.95" height="6.76" fill="#232325"/><rect x="256.86" y="480.14" width="0.95" height="6.76" fill="#232325"/><rect x="252.15" y="480.14" width="0.95" height="6.76" fill="#232325"/><rect x="247.44" y="480.14" width="0.95" height="6.76" fill="#232325"/><rect x="242.72" y="480.14" width="0.95" height="6.76" fill="#232325"/><rect x="235.66" y="480.14" width="0.95" height="6.76" fill="#232325"/><rect x="223.88" y="480.14" width="0.95" height="6.76" fill="#232325"/><rect x="184.82" y="479.98" width="81.54" height="7.25" fill="#fff" opacity="0.2"/><rect x="184.82" y="494.36" width="81.54" height="7.25" fill="#f29900"/><rect x="261.57" y="494.52" width="0.95" height="6.76" fill="#232325"/><rect x="263.93" y="494.52" width="0.95" height="6.76" fill="#232325"/><rect x="256.86" y="494.52" width="0.95" height="6.76" fill="#232325"/><rect x="252.15" y="494.52" width="0.95" height="6.76" fill="#232325"/><rect x="247.44" y="494.52" width="0.95" height="6.76" fill="#232325"/><rect x="242.72" y="494.52" width="0.95" height="6.76" fill="#232325"/><rect x="235.66" y="494.52" width="0.95" height="6.76" fill="#232325"/><rect x="223.88" y="494.52" width="0.95" height="6.76" fill="#232325"/><rect x="184.82" y="494.36" width="81.54" height="7.25" fill="#fff" opacity="0.2"/><rect x="183.07" y="501.61" width="81.54" height="7.25" fill="#f29900"/><rect x="259.82" y="501.77" width="0.95" height="6.76" fill="#232325"/><rect x="262.19" y="501.77" width="0.95" height="6.76" fill="#232325"/><rect x="255.12" y="501.77" width="0.95" height="6.76" fill="#232325"/><rect x="250.4" y="501.77" width="0.95" height="6.76" fill="#232325"/><rect x="245.69" y="501.77" width="0.95" height="6.76" fill="#232325"/><rect x="240.98" y="501.77" width="0.95" height="6.76" fill="#232325"/><rect x="233.92" y="501.77" width="0.95" height="6.76" fill="#232325"/><rect x="222.13" y="501.77" width="0.95" height="6.76" fill="#232325"/><rect x="183.07" y="516.01" width="81.54" height="7.25" fill="#f29900"/><rect x="259.82" y="516.18" width="0.95" height="6.76" fill="#232325"/><rect x="262.19" y="516.18" width="0.95" height="6.76" fill="#232325"/><rect x="255.12" y="516.18" width="0.95" height="6.76" fill="#232325"/><rect x="250.4" y="516.18" width="0.95" height="6.76" fill="#232325"/><rect x="245.69" y="516.18" width="0.95" height="6.76" fill="#232325"/><rect x="240.98" y="516.18" width="0.95" height="6.76" fill="#232325"/><rect x="233.92" y="516.18" width="0.95" height="6.76" fill="#232325"/><rect x="222.13" y="516.18" width="0.95" height="6.76" fill="#232325"/><rect x="185.04" y="508.89" width="81.54" height="7.25" fill="#f29900"/><rect x="261.79" y="509.05" width="0.95" height="6.76" fill="#232325"/><rect x="264.15" y="509.05" width="0.95" height="6.76" fill="#232325"/><rect x="257.08" y="509.05" width="0.95" height="6.76" fill="#232325"/><rect x="252.37" y="509.05" width="0.95" height="6.76" fill="#232325"/><rect x="247.66" y="509.05" width="0.95" height="6.76" fill="#232325"/><rect x="242.94" y="509.05" width="0.95" height="6.76" fill="#232325"/><rect x="235.88" y="509.05" width="0.95" height="6.76" fill="#232325"/><rect x="224.1" y="509.05" width="0.95" height="6.76" fill="#232325"/><rect x="185.04" y="508.89" width="81.54" height="7.25" fill="#fff" opacity="0.2"/><rect x="185.04" y="523.27" width="81.54" height="7.25" fill="#f29900"/><rect x="261.79" y="523.43" width="0.95" height="6.76" fill="#232325"/><rect x="264.15" y="523.43" width="0.95" height="6.76" fill="#232325"/><rect x="257.08" y="523.43" width="0.95" height="6.76" fill="#232325"/><rect x="252.37" y="523.43" width="0.95" height="6.76" fill="#232325"/><rect x="247.66" y="523.43" width="0.95" height="6.76" fill="#232325"/><rect x="242.94" y="523.43" width="0.95" height="6.76" fill="#232325"/><rect x="235.88" y="523.43" width="0.95" height="6.76" fill="#232325"/><rect x="224.1" y="523.43" width="0.95" height="6.76" fill="#232325"/><rect x="185.04" y="523.27" width="81.54" height="7.25" fill="#fff" opacity="0.2"/><rect x="183.07" y="529.98" width="81.54" height="7.25" fill="#f29900"/><rect x="259.82" y="530.14" width="0.95" height="6.76" fill="#232325"/><rect x="262.19" y="530.14" width="0.95" height="6.76" fill="#232325"/><rect x="255.12" y="530.14" width="0.95" height="6.76" fill="#232325"/><rect x="250.4" y="530.14" width="0.95" height="6.76" fill="#232325"/><rect x="245.69" y="530.14" width="0.95" height="6.76" fill="#232325"/><rect x="240.98" y="530.14" width="0.95" height="6.76" fill="#232325"/><rect x="233.92" y="530.14" width="0.95" height="6.76" fill="#232325"/><rect x="222.13" y="530.14" width="0.95" height="6.76" fill="#232325"/><rect x="183.07" y="544.38" width="81.54" height="7.25" fill="#f29900"/><rect x="259.82" y="544.54" width="0.95" height="6.76" fill="#232325"/><rect x="262.19" y="544.54" width="0.95" height="6.76" fill="#232325"/><rect x="255.12" y="544.54" width="0.95" height="6.76" fill="#232325"/><rect x="250.4" y="544.54" width="0.95" height="6.76" fill="#232325"/><rect x="245.69" y="544.54" width="0.95" height="6.76" fill="#232325"/><rect x="240.98" y="544.54" width="0.95" height="6.76" fill="#232325"/><rect x="233.92" y="544.54" width="0.95" height="6.76" fill="#232325"/><rect x="222.13" y="544.54" width="0.95" height="6.76" fill="#232325"/><rect x="185.04" y="537.25" width="81.54" height="7.25" fill="#f29900"/><rect x="261.79" y="537.41" width="0.95" height="6.76" fill="#232325"/><rect x="264.15" y="537.41" width="0.95" height="6.76" fill="#232325"/><rect x="257.08" y="537.41" width="0.95" height="6.76" fill="#232325"/><rect x="252.37" y="537.41" width="0.95" height="6.76" fill="#232325"/><rect x="247.66" y="537.41" width="0.95" height="6.76" fill="#232325"/><rect x="242.94" y="537.41" width="0.95" height="6.76" fill="#232325"/><rect x="235.88" y="537.41" width="0.95" height="6.76" fill="#232325"/><rect x="224.1" y="537.41" width="0.95" height="6.76" fill="#232325"/><rect x="185.04" y="537.25" width="81.54" height="7.25" fill="#fff" opacity="0.2"/><rect x="185.04" y="551.63" width="81.54" height="7.25" fill="#f29900"/><rect x="261.79" y="551.79" width="0.95" height="6.76" fill="#232325"/><rect x="264.15" y="551.79" width="0.95" height="6.76" fill="#232325"/><rect x="257.08" y="551.79" width="0.95" height="6.76" fill="#232325"/><rect x="252.37" y="551.79" width="0.95" height="6.76" fill="#232325"/><rect x="247.66" y="551.79" width="0.95" height="6.76" fill="#232325"/><rect x="242.94" y="551.79" width="0.95" height="6.76" fill="#232325"/><rect x="235.88" y="551.79" width="0.95" height="6.76" fill="#232325"/><rect x="224.1" y="551.79" width="0.95" height="6.76" fill="#232325"/><rect x="185.04" y="551.63" width="81.54" height="7.25" fill="#fff" opacity="0.2"/></svg>